<svg width="683" height="346" viewBox="0 0 683 346" fill="none" xmlns="http://www.w3.org/2000/svg">
<path d="M142.493 257.232C94.6492 255.591 57.1851 215.468 58.8235 167.622C60.4652 119.722 100.588 82.261 148.431 83.8985C196.275 85.5378 233.741 125.659 232.099 173.559C230.46 221.406 190.337 258.869 142.493 257.232ZM290.119 186.455L290.867 164.61L277.454 160.228C276.902 152.763 275.655 145.391 273.878 138.289L285.246 129.907L277.523 109.386L263.462 110.519C260.11 103.882 256.172 97.571 251.756 91.6491L259.041 79.4912L244.064 63.5128L231.494 69.9501C225.831 65.1388 219.861 60.778 213.472 56.9243L215.509 42.9709L195.562 33.9169L186.423 44.6284C179.46 42.3691 172.247 40.68 164.784 39.5594L161.384 25.8787L139.48 25.1289L135.155 38.542C127.63 39.1505 120.318 40.3441 113.216 42.1197L104.774 30.8063L84.2547 38.4738L85.3892 52.537C78.7522 55.9434 72.4418 59.8819 66.5191 64.2975L54.4192 57.0158L38.3832 71.9318L44.8189 84.5585C40.0099 90.1645 35.6485 96.1928 31.85 102.583L17.8986 100.49L8.78985 120.432L19.5566 129.574C17.2992 136.539 15.5484 143.809 14.4873 151.217L0.748793 154.668L0 176.517L13.4696 180.903C14.0196 188.424 15.2705 195.739 17.0465 202.839L5.67979 211.222L13.402 231.745L27.4638 230.608C30.8156 237.243 34.7542 243.556 39.1684 249.479L31.8831 261.636L46.8606 277.616L59.4308 271.177C65.0371 275.988 71.0631 280.35 77.4521 284.204L75.3577 298.154L95.3039 307.207L104.501 296.498C111.464 298.758 118.677 300.449 126.142 301.569L129.54 315.246L151.444 315.998L155.771 302.583C163.294 301.976 170.606 300.784 177.708 299.007L186.092 310.317L206.611 302.651L205.535 288.593C212.174 285.185 218.426 281.243 224.405 276.829L236.506 284.114L252.541 269.195L246.107 256.568C250.915 250.961 255.277 244.934 259.075 238.543L273.026 240.638L282.135 220.693L271.367 211.553C273.627 204.592 275.374 197.378 276.436 189.912L290.119 186.455Z" fill="#E7E8E5"/>
<path d="M624.729 82.4056C620.676 78.0648 620.908 71.2585 625.249 67.2053C629.597 63.1455 636.403 63.3798 640.456 67.7207C644.511 72.0631 644.277 78.8678 639.931 82.9276C635.59 86.9808 628.782 86.7481 624.729 82.4056ZM663.991 114.211L669.5 109.066L667.299 104.728C668.985 102.773 670.478 100.672 671.776 98.507L676.592 99.2335L679.713 92.3474L676.007 89.1936C676.809 86.7613 677.387 84.261 677.754 81.7406L682.496 80.5502L682.74 73.0024L678.105 71.5079C677.898 68.9542 677.505 66.4355 676.887 63.9368L680.787 61.0307L678.13 53.9601L673.289 54.3425C672.142 52.0947 670.795 49.9219 669.249 47.8288L671.756 43.6658L666.597 38.1397L662.272 40.3574C660.288 38.6716 658.215 37.1787 656.05 35.8803L656.75 31.064L649.878 27.9285L646.725 31.6342C644.275 30.8479 641.776 30.2693 639.256 29.9003L638.08 25.1738L630.533 24.9011L629.023 29.5495C626.483 29.7457 623.951 30.1513 621.465 30.7831L618.574 26.8712L611.49 29.5129L611.886 34.3674C609.638 35.5146 607.439 36.8612 605.372 38.409L601.181 35.9003L595.671 41.0457L597.886 45.3998C596.187 47.3666 594.707 49.4563 593.409 51.6209L588.593 50.8911L585.472 57.7805L589.178 60.931C588.378 63.3665 587.798 65.867 587.43 68.3873L582.691 69.5744L582.445 77.1255L587.081 78.6184C587.274 81.1587 587.68 83.6924 588.298 86.1911L584.386 89.0806L587.043 96.1529L591.896 95.7838C593.043 98.0332 594.39 100.204 595.937 102.296L593.43 106.46L598.588 111.985L602.915 109.769C604.897 111.456 606.97 112.948 609.136 114.246L608.421 119.049L615.296 122.183L618.461 118.492C620.91 119.28 623.397 119.844 625.931 120.224L627.105 124.953L634.652 125.224L636.164 120.575C638.702 120.382 641.236 119.977 643.72 119.343L646.611 123.257L653.696 120.615L653.299 115.759C655.547 114.612 657.733 113.28 659.813 111.719L663.991 114.211Z" fill="#E7E8E5"/>
<path d="M490.645 97.0839C466.21 97.0839 445.924 116.527 445.081 141.134C444.22 166.268 463.967 187.415 489.103 188.277C501.28 188.685 512.895 184.341 521.801 176.013C530.7 167.694 535.831 156.415 536.248 144.258C537.107 119.122 517.36 97.9733 492.226 97.1105C491.698 97.0922 491.169 97.0839 490.645 97.0839ZM490.709 195.326C490.093 195.326 489.48 195.315 488.862 195.295C459.857 194.301 437.069 169.895 438.064 140.893C439.058 111.89 463.502 89.1088 492.466 90.093C521.47 91.0872 544.258 115.493 543.264 144.497C542.783 158.529 536.863 171.544 526.595 181.142C516.768 190.327 504.085 195.326 490.709 195.326ZM516.499 69.2302H516.516H516.499ZM475.297 226.856L500.25 227.712L508.514 215.745C508.986 215.06 509.686 214.567 510.489 214.351C515.086 213.114 519.648 211.366 524.047 209.154L524.07 209.142C524.803 208.781 525.658 208.67 526.494 208.888L538.196 211.867L556.444 194.828L554.261 182.903C554.107 182.061 554.266 181.192 554.707 180.459C557.114 176.464 559.156 172.081 560.777 167.435C561.043 166.61 561.606 165.917 562.339 165.484L574.846 158.056L575.703 133.104L563.726 124.833C563.099 124.401 562.632 123.775 562.391 123.056L562.309 122.775C561.058 118.189 559.317 113.684 557.132 109.383C556.747 108.623 556.652 107.751 556.861 106.926L559.861 95.1587L542.82 76.9077L530.868 79.0955C530.03 79.2501 529.167 79.0922 528.438 78.6566C524.281 76.1762 519.892 74.128 515.393 72.5619C515.139 72.4754 514.881 72.3574 514.66 72.2211C514.175 71.9235 513.771 71.5129 513.482 71.0241L506.047 58.5054L481.093 57.6508L472.823 69.6275C472.331 70.3408 471.593 70.8428 470.757 71.044C466.14 72.3092 461.65 74.0449 457.367 76.2194C456.607 76.6035 455.733 76.7015 454.911 76.4904L443.149 73.4912L424.9 90.5336L427.083 102.459C427.219 103.207 427.109 103.98 426.768 104.66L426.611 104.943C424.198 108.953 422.153 113.348 420.536 118.008C420.263 118.79 419.723 119.453 419.011 119.875L406.496 127.307L405.641 152.259L417.628 160.537C418.311 161.009 418.805 161.709 419.021 162.51C420.313 167.292 422.054 171.83 424.192 176.005C424.315 176.244 424.411 176.497 424.476 176.76C424.617 177.323 424.617 177.915 424.473 178.477L421.483 190.204L438.524 208.452L450.391 206.281C451.226 206.129 452.084 206.284 452.81 206.713C457.041 209.215 461.452 211.263 465.922 212.806C466.73 213.062 467.43 213.607 467.876 214.359L475.297 226.856ZM502.047 234.794H501.927L473.138 233.809C471.942 233.767 470.85 233.12 470.24 232.093L462.487 219.037C458.366 217.543 454.305 215.657 450.381 213.421L437.901 215.704C436.722 215.927 435.52 215.523 434.704 214.646L415.043 193.594C414.227 192.72 413.912 191.491 414.207 190.331L417.345 178.011C415.438 174.111 413.842 169.943 412.592 165.593L400.072 156.946C399.088 156.267 398.517 155.134 398.557 153.938L399.545 125.147C399.585 123.953 400.232 122.859 401.261 122.249L414.338 114.484C415.889 110.239 417.768 106.196 419.941 102.434L417.646 89.9101C417.432 88.7348 417.831 87.5278 418.704 86.7132L439.759 67.0507C440.634 66.2327 441.864 65.9202 443.023 66.2144L455.382 69.3666C459.382 67.4214 463.537 65.8187 467.768 64.5935L476.406 52.0814C477.086 51.0972 478.202 50.4888 479.415 50.5686L508.205 51.5561C509.4 51.596 510.492 52.2427 511.103 53.2718L518.87 66.3491C522.996 67.8603 527.028 69.7406 530.885 71.9551L543.443 69.6558C544.622 69.4414 545.824 69.8387 546.642 70.7115L566.301 91.7689C567.117 92.645 567.432 93.8736 567.137 95.0323L563.987 107.396C565.934 111.398 567.535 115.551 568.76 119.777L581.27 128.416C582.255 129.094 582.825 130.229 582.785 131.425L581.799 160.216C581.757 161.411 581.111 162.504 580.082 163.114L566.999 170.883C565.45 175.127 563.571 179.169 561.403 182.924L563.696 195.453C563.912 196.628 563.513 197.835 562.639 198.65L541.585 218.309C540.71 219.127 539.483 219.441 538.321 219.144L526.017 216.01C521.96 217.967 517.784 219.567 513.568 220.781L504.936 233.28C504.28 234.231 503.199 234.794 502.047 234.794Z" fill="#E7E8E5"/>
<path d="M568.366 27.5961L556.439 24.3924L553.237 12.4672L557.907 7.79891L562.833 18L573.036 22.9261L568.366 27.5961Z" fill="#DADBD8"/>
<path d="M569.107 19.6127C571.279 17.4398 571.279 13.8986 569.106 11.7257C566.934 9.55447 563.408 9.56944 561.235 11.7407L567.167 2.84293L575.124 6.86453L576.868 15.2236L569.107 19.6127Z" fill="#DADBD8"/>
<path d="M572.835 15.8853C575.008 13.7107 575.008 10.1696 572.835 7.99669C570.662 5.82546 567.138 5.8421 564.965 8.01333C562.792 10.1862 562.792 13.6958 564.965 15.8687C567.138 18.0399 570.662 18.0565 572.835 15.8853ZM556.966 8.73983L565.706 1.14441e-05L577.631 3.202L580.833 15.1272L572.095 23.8687L560.168 20.665L556.966 8.73983Z" fill="#EDEDEB"/>
<path d="M80.8887 345.773L87.288 344.054L89.0064 337.657L86.501 335.152L83.8571 340.625L78.3833 343.27L80.8887 345.773Z" fill="#DADBD8"/>
<path d="M80.4912 341.491C79.325 340.324 79.325 338.425 80.4912 337.258C81.657 336.093 83.5488 336.101 84.7145 337.266L81.5316 332.492L77.2618 334.65L76.3267 339.135L80.4912 341.491Z" fill="#DADBD8"/>
<path d="M78.4899 339.489C77.3243 338.324 77.3243 336.424 78.4906 335.258C79.6563 334.093 81.5481 334.101 82.7139 335.266C83.8794 336.432 83.8794 338.315 82.7139 339.481C81.5481 340.646 79.6563 340.655 78.4899 339.489ZM87.0065 335.654L82.3164 330.966L75.917 332.683L74.198 339.084L78.8881 343.773L85.2874 342.054L87.0065 335.654Z" fill="#EDEDEB"/>
<path d="M112.554 98.1263C112.273 98.3857 111.465 99.4314 110.307 103.481C108.777 108.823 109.72 113.696 111.515 117.19C111.859 116.47 112.099 115.639 112.263 114.859C113.987 106.697 113.485 99.3084 112.554 98.1263ZM123.504 103.365C123.073 104.171 122.353 105.832 121.276 109.232C119.848 113.734 119.841 117.352 120.636 120.118L120.79 119.701C122.746 113.985 123.698 106.11 123.504 103.365ZM135.427 110.369C135.422 110.369 134.486 110.376 132.39 114.269C129.984 118.733 129.372 122.407 130.514 125.503C130.654 125.882 130.82 126.251 131.015 126.617C131.903 126.238 132.662 125.619 133.211 124.781C135.539 121.222 136.654 113.912 135.788 111.054C135.61 110.469 135.429 110.369 135.427 110.369ZM144.827 137.749L144.528 137.692C137.045 134.795 132.568 131.963 130.242 128.562C128.553 128.901 126.662 128.677 124.869 127.824C123.126 126.996 121.45 125.548 120.247 123.465C119.123 124.329 117.736 124.567 116.214 124.088C114.524 123.556 112.767 122.135 111.306 120.08C110.377 120.751 109.424 120.851 108.726 120.793C103.783 120.391 97.0853 110.552 96.6046 100.068C96.5838 99.6093 96.9385 99.2202 97.3973 99.2003C97.8462 99.162 98.2452 99.5328 98.2651 99.9933C98.7207 109.943 105.098 118.831 108.86 119.135C109.47 119.195 109.981 119.004 110.41 118.672C108.15 114.71 106.98 109.059 108.709 103.024C110.139 98.0282 111.401 96.0747 112.918 96.4372C115.781 97.1487 115.406 108.027 113.889 115.204C113.545 116.83 113.05 117.998 112.485 118.833C113.796 120.77 115.351 122.073 116.712 122.502C117.928 122.883 118.829 122.56 119.495 121.927C118.189 118.708 117.918 114.322 119.692 108.728C122.024 101.367 122.963 101.165 123.525 101.047C123.921 100.964 124.317 101.094 124.598 101.413C126.134 103.147 124.298 114.583 122.363 120.239C122.112 120.976 121.8 121.618 121.437 122.163C122.47 124.186 123.989 125.564 125.582 126.321C126.859 126.929 128.169 127.149 129.361 127.037C129.211 126.723 129.076 126.404 128.955 126.08C127.638 122.509 128.282 118.389 130.925 113.481C132.679 110.226 134.109 108.708 135.426 108.706H135.427C135.82 108.706 136.549 108.851 137.068 109.807C138.518 112.482 137.467 121.31 134.603 125.691C133.928 126.723 132.995 127.504 131.913 128.015C134.14 130.944 138.37 133.524 145.128 136.145C145.555 136.309 145.768 136.79 145.602 137.219C145.475 137.548 145.16 137.749 144.827 137.749Z" fill="#33393F"/>
<path d="M212.358 206.297C212.451 206.557 212.822 207.24 214.297 208.605C216.769 210.889 219.015 211.905 221.164 211.669C221.342 211.652 221.52 211.626 221.696 211.589C221.578 211.085 221.339 210.618 220.975 210.218C218.636 207.654 213.494 206.031 212.358 206.297ZM206.556 213.361C207.115 213.774 207.916 214.319 209.06 215.036C211.316 216.445 213.327 217.097 215.046 217.233C212.29 215.526 208.687 214.013 206.556 213.361ZM208.032 224.891C205.497 224.891 202.83 224.314 200.45 222.916C200.052 222.681 199.921 222.174 200.152 221.777C200.385 221.38 200.895 221.252 201.291 221.481C207.221 224.962 214.887 222.533 216.464 219.996C216.647 219.699 216.815 219.321 216.709 218.881C214.363 219.13 211.479 218.509 208.179 216.444C203.947 213.8 203.622 213.014 203.648 212.384C203.665 212.011 203.876 211.687 204.215 211.514C205.869 210.675 213.367 214.131 216.493 216.184C216.902 216.454 217.248 216.745 217.527 217.054C218.908 216.716 219.979 216.003 220.691 215.149C221.178 214.563 221.505 213.923 221.666 213.283L221.334 213.323C218.676 213.592 216.009 212.45 213.169 209.825C211.218 208.021 210.459 206.778 210.712 205.792C210.792 205.479 211.055 204.919 211.906 204.706C214.207 204.134 219.883 206.553 222.203 209.097C222.725 209.669 223.081 210.342 223.269 211.065C225.439 210.046 227.733 207.76 230.449 203.965C230.717 203.591 231.236 203.504 231.61 203.772C231.982 204.038 232.069 204.558 231.803 204.932C228.661 209.32 226.042 211.807 223.412 212.823C223.309 213.993 222.825 215.183 221.967 216.214C221.124 217.223 219.896 218.091 218.341 218.56C218.508 219.308 218.358 220.1 217.876 220.873C216.474 223.13 212.454 224.891 208.032 224.891Z" fill="#33393F"/>
<path d="M98.9652 246.424L142.122 170.666L154.164 236.395L98.9652 246.424ZM230.051 222.61L204.145 227.315L180.626 98.9508L130.646 108.03L49.2012 252.666L57.9463 300.394L162.413 281.416L169.565 320.453L219.547 311.375L212.395 272.339L238.3 267.631L230.051 222.61Z" fill="#FE6C0A"/>
<path d="M438.675 90.2194C437.709 81.3516 435.937 73.4713 433.36 66.5818C430.785 59.6908 426.911 52.936 421.739 46.3158C416.569 39.6974 409.528 33.9534 400.619 29.0823C391.708 24.2161 379.947 20.8246 365.337 18.921C334.927 14.9593 311.219 20.3575 294.212 35.1139C277.203 49.872 266.012 78.1412 260.632 119.922C258.445 136.914 257.903 152.622 259.01 167.046C260.11 181.466 262.757 193.067 266.952 201.845C272.689 214.179 280.809 224.03 291.306 231.391C301.801 238.753 316.182 243.627 334.448 246.008C367.028 250.251 391.173 243.998 406.882 227.242C422.589 210.487 433.011 182.168 438.145 142.286C440.436 124.495 440.612 107.139 438.675 90.2194Z" fill="#FE6C0A"/>
<path d="M349.459 228.942C345.46 228.804 341.204 228.444 336.81 227.87C321.592 225.89 309.816 222.038 301.809 216.42C293.911 210.881 287.933 203.592 283.535 194.133L283.452 193.962C280.257 187.273 278.169 177.745 277.244 165.652C276.238 152.539 276.752 137.938 278.77 122.256C284.704 76.1695 296.96 56.941 306.197 48.9277C316.967 39.5844 331.502 35.36 350.636 36.0167C354.556 36.1497 358.707 36.5005 362.973 37.0557C375.254 38.6551 384.97 41.3733 391.853 45.1305C398.518 48.7748 403.725 52.9626 407.329 57.576C411.326 62.6899 414.32 67.8736 416.23 72.9842C418.263 78.4222 419.698 84.8877 420.496 92.1994C422.267 107.676 422.099 123.711 420.009 139.95C415.399 175.759 406.493 200.919 393.542 214.731C383.934 224.981 369.515 229.629 349.462 228.942H349.459Z" fill="#33393F"/>
<path d="M339.442 111.11C325.652 110.638 314.852 99.0739 315.326 85.2817C315.798 71.4746 327.364 60.6766 341.155 61.1487C354.945 61.6225 365.745 73.1853 365.271 86.9924C364.799 100.785 353.233 111.583 339.442 111.11ZM381.994 90.7098L382.21 84.4122L378.343 83.1504C378.185 80.9991 377.824 78.8727 377.312 76.8262L380.589 74.4106L378.365 68.4953L374.31 68.8212C373.344 66.9093 372.209 65.0889 370.937 63.3831L373.036 59.8786L368.719 55.2735L365.096 57.1271C363.464 55.7406 361.743 54.4854 359.901 53.3748L360.488 49.3516L354.739 46.7414L352.105 49.8304C350.097 49.1787 348.019 48.6916 345.868 48.369L344.887 44.4256L338.574 44.2094L337.327 48.0748C335.158 48.251 333.05 48.5951 331.003 49.1055L328.569 45.8453L322.656 48.0548L322.982 52.1097C321.07 53.0922 319.249 54.2261 317.544 55.4995L314.056 53.3998L309.432 57.699L311.288 61.3399C309.901 62.9542 308.644 64.6916 307.55 66.5353L303.529 65.9301L300.904 71.6791L304.006 74.3141C303.356 76.3224 302.85 78.4172 302.544 80.5519L298.584 81.5477L298.37 87.8453L302.252 89.1088C302.41 91.2767 302.771 93.3864 303.283 95.4313L300.006 97.8503L302.232 103.764L306.285 103.438C307.251 105.35 308.386 107.169 309.66 108.876L307.559 112.381L311.876 116.986L315.5 115.13C317.116 116.517 318.852 117.775 320.694 118.886L320.091 122.908L325.839 125.516L328.491 122.43C330.498 123.08 332.578 123.568 334.729 123.892L335.708 127.834L342.022 128.05L343.269 124.183C345.437 124.008 347.545 123.666 349.592 123.152L352.009 126.412L357.924 124.203L357.613 120.151C359.527 119.169 361.329 118.031 363.053 116.76L366.541 118.859L371.163 114.558L369.309 110.921C370.694 109.303 371.951 107.566 373.046 105.724L377.068 106.329L379.693 100.578L376.589 97.9434C377.241 95.9367 377.745 93.8586 378.051 91.7056L381.994 90.7098Z" fill="#FE6C0A"/>
<path d="M379.371 229.539L375.126 229.064L374.656 226.342C374.553 226.319 374.45 226.296 374.348 226.271C382.145 223.938 388.506 220.104 393.542 214.731C398.784 209.14 403.364 201.691 407.264 192.427L408.094 195.31L405.766 196.786C406.011 198.196 406.135 199.641 406.144 201.1L408.696 202.139L408.24 206.385L405.5 206.856C405.179 208.246 404.762 209.612 404.21 210.974L406.167 212.909L404.114 216.651L401.429 216.055C400.571 217.252 399.638 218.347 398.631 219.363L399.711 221.91L396.37 224.578L394.13 222.984C392.897 223.759 391.61 224.414 390.287 224.972L390.29 227.734L386.202 228.937L384.726 226.592C383.297 226.834 381.853 226.979 380.413 226.987L379.371 229.539Z" fill="#FE6C0A"/>
<path d="M368.583 227.012L364.84 224.957L365.457 222.252C364.26 221.416 363.164 220.482 362.149 219.476L359.582 220.555L356.913 217.213L358.509 214.954C357.733 213.74 357.078 212.454 356.519 211.13L353.756 211.134L352.554 207.026L354.902 205.551C354.657 204.141 354.513 202.696 354.523 201.257L351.972 200.196L352.428 195.952L355.148 195.501C355.469 194.091 355.904 192.725 356.458 191.361L354.501 189.426L356.554 185.684L359.238 186.282C360.077 185.085 361.028 183.99 362.017 182.972L360.957 180.425L364.277 177.757L366.538 179.353C367.771 178.578 369.058 177.922 370.381 177.365L370.358 174.6L374.466 173.4L375.942 175.745C377.371 175.501 378.795 175.356 380.255 175.348L381.296 172.798L385.54 173.273L386.012 175.991C387.402 176.312 388.789 176.73 390.13 177.3L392.085 175.325L395.828 177.378L395.209 180.083C396.408 180.921 397.504 181.854 398.519 182.861L401.066 181.8L403.735 185.122L402.159 187.383C402.935 188.595 403.59 189.883 404.147 191.225L406.91 191.203L407.264 192.427C403.364 201.691 398.784 209.14 393.542 214.731C388.506 220.104 382.145 223.938 374.348 226.271C373.061 225.962 371.78 225.566 370.536 225.055L368.583 227.012ZM380.326 193.757C377.711 193.757 375.179 195.144 373.831 197.599C371.859 201.19 373.164 205.707 376.754 207.681C377.884 208.301 379.105 208.595 380.31 208.595C382.935 208.595 385.485 207.198 386.837 204.736C388.807 201.147 387.484 196.647 383.893 194.676C382.759 194.053 381.533 193.757 380.326 193.757Z" fill="#3A3A3A"/>
<path d="M398.99 150.539C392.446 150.314 387.336 144.821 387.558 138.297C387.783 131.754 393.258 126.642 399.799 126.866C406.343 127.089 411.455 132.563 411.231 139.109C411.008 145.632 405.532 150.763 398.99 150.539ZM431.793 134.539L426.837 131.115L426.834 131.104C426.343 129.303 425.666 127.569 424.84 125.942L426.11 120.959L418.923 113.262L413.863 114.188C412.297 113.252 410.614 112.46 408.853 111.847L408.84 111.844L405.765 106.663L395.238 106.302L391.816 111.258L391.796 111.263C389.997 111.754 388.267 112.429 386.641 113.253L381.66 111.983L373.961 119.174L374.887 124.223L374.883 124.228C373.929 125.812 373.154 127.495 372.543 129.255L367.364 132.331L367.003 142.858L371.962 146.281C372.453 148.095 373.108 149.824 373.951 151.466V151.468L372.686 156.435L379.873 164.134L384.902 163.213C386.488 164.151 388.172 164.946 389.956 165.558L389.959 165.559L393.031 170.731L403.557 171.092L406.977 166.141C408.797 165.651 410.529 164.974 412.177 164.146H412.179L417.136 165.41L424.834 158.223L423.909 153.172C424.863 151.588 425.638 149.903 426.25 148.141L431.432 145.064L431.793 134.539Z" fill="white"/>
<path d="M459.497 39.7556C459.065 37.335 460.679 35.0258 463.093 34.5935C465.513 34.1613 467.821 35.7689 468.253 38.1895C468.687 40.6085 467.08 42.916 464.659 43.3499C462.245 43.7822 459.931 42.1746 459.497 39.7556ZM467.956 50.5386L468.824 48.4522L468.827 48.4489C469.449 48.1263 470.032 47.7423 470.566 47.31L472.494 47.3848L474.755 44.138L474.017 42.3541C474.237 41.704 474.396 41.0258 474.481 40.3292L474.483 40.3242L476.142 38.7863L475.445 34.8928L473.356 34.0283L473.352 34.0216C473.031 33.3998 472.647 32.8163 472.215 32.2843L472.29 30.3558L469.043 28.0948L467.262 28.8329L467.261 28.8313C466.604 28.6052 465.924 28.4539 465.229 28.3691L463.693 26.7099L459.799 27.4048L458.932 29.4963C458.305 29.8171 457.721 30.1962 457.184 30.6351L455.261 30.5619L453 33.8071L453.735 35.5794C453.515 36.2377 453.356 36.9177 453.271 37.6209V37.6226L451.613 39.1587L452.31 43.0524L454.398 43.9169C454.721 44.547 455.106 45.1305 455.538 45.6692L455.54 45.6708L455.467 47.5893L458.712 49.8503L460.493 49.1139C461.151 49.34 461.829 49.4913 462.524 49.576H462.526L464.064 51.2352L467.956 50.5386Z" fill="#FE6C0A"/>
<path d="M422.345 39.5096L421.076 38.4373C423.282 35.8238 426.413 32.5121 431.065 30.0765L431.834 31.5511C426.877 34.1446 423.701 37.9053 422.345 39.5096Z" fill="#FE6C0A"/>
<path d="M435.618 30.0532L434.961 28.5237C441.25 25.8305 447.821 24.7797 454.477 25.3982L454.323 27.0541C447.939 26.4456 441.648 27.4664 435.618 30.0532Z" fill="#FE6C0A"/>
<path d="M432.479 41.5545L431.104 40.6202C434.519 35.6044 441.267 31.237 447.517 29.9984L447.839 31.6277C441.984 32.7914 435.668 36.8729 432.479 41.5545Z" fill="#FE6C0A"/>
<path d="M303.906 156.174C300.883 160.736 299.818 166.203 300.908 171.566C301.997 176.929 305.11 181.548 309.671 184.572C319.091 190.811 331.831 188.231 338.069 178.816C344.31 169.4 341.728 156.655 332.313 150.409C322.9 144.169 310.157 146.755 303.906 156.174ZM320.96 189.637C316.757 189.637 312.511 188.449 308.752 185.958C303.821 182.69 300.456 177.696 299.279 171.897C298.1 166.098 299.253 160.189 302.519 155.257H302.521C309.279 145.074 323.056 142.277 333.231 149.022C343.41 155.775 346.202 169.553 339.455 179.734C335.199 186.158 328.144 189.637 320.96 189.637ZM312.784 195.017L313.018 195.05C314.799 195.574 316.651 195.92 318.523 196.075C318.724 196.091 318.912 196.181 319.051 196.326L322.435 199.814L332.247 197.824L334.009 193.282C334.082 193.094 334.222 192.937 334.4 192.844C336.067 191.976 337.641 190.942 339.08 189.769C339.231 189.644 339.402 189.561 339.618 189.581L345.387 189.669L350.918 181.323L348.584 176.031C348.504 175.852 348.493 175.651 348.548 175.463C349.073 173.649 349.417 171.797 349.57 169.958C349.587 169.757 349.675 169.571 349.819 169.43L353.311 166.045L351.321 156.234L346.787 154.475C346.594 154.4 346.436 154.257 346.345 154.073C345.48 152.41 344.444 150.841 343.267 149.408C343.143 149.255 343.075 149.064 343.078 148.868L343.166 143.092L334.822 137.561L329.542 139.89C329.362 139.967 329.163 139.98 328.975 139.928C327.173 139.405 325.314 139.06 323.45 138.904C323.249 138.888 323.063 138.798 322.923 138.655L319.542 135.17L309.731 137.16L307.974 141.694C307.901 141.882 307.761 142.038 307.582 142.13C305.926 142.992 304.35 144.03 302.898 145.213C302.747 145.336 302.544 145.425 302.358 145.403L296.589 145.313L291.06 153.661L293.39 158.944C293.49 159.172 293.484 159.431 293.374 159.652C292.905 161.313 292.561 163.169 292.405 165.029C292.388 165.228 292.3 165.415 292.155 165.556L288.667 168.939L290.656 178.751L295.188 180.507C295.39 180.585 295.553 180.74 295.643 180.934C296.504 182.583 297.537 184.149 298.707 185.574C298.832 185.727 298.902 185.922 298.898 186.118L298.81 191.89L307.156 197.423L312.448 195.089L312.784 195.017ZM322.155 201.549C321.932 201.549 321.716 201.461 321.558 201.296L318.072 197.704C316.297 197.536 314.541 197.21 312.843 196.73L307.41 199.125C307.153 199.245 306.853 199.213 306.616 199.059L297.514 193.024C297.277 192.868 297.138 192.603 297.141 192.319L297.233 186.394C296.127 185.017 295.139 183.524 294.295 181.943L289.632 180.136C289.369 180.033 289.174 179.804 289.118 179.526L286.948 168.824C286.892 168.547 286.982 168.259 287.184 168.061L290.777 164.577C290.943 162.811 291.269 161.052 291.748 159.341L289.354 153.915C289.239 153.656 289.266 153.356 289.422 153.12L295.455 144.016C295.612 143.78 295.833 143.634 296.162 143.644L302.082 143.735C303.472 142.625 304.968 141.639 306.536 140.801L308.345 136.136C308.448 135.872 308.677 135.677 308.955 135.621L319.656 133.451C319.936 133.396 320.222 133.484 320.42 133.686L323.901 137.275C325.67 137.441 327.43 137.769 329.143 138.248L334.568 135.857C334.825 135.742 335.124 135.769 335.362 135.925L344.464 141.958C344.701 142.115 344.84 142.381 344.835 142.665L344.745 148.592C345.853 149.97 346.837 151.463 347.678 153.039L352.345 154.849C352.611 154.951 352.804 155.18 352.86 155.458L355.03 166.159C355.086 166.437 354.996 166.725 354.794 166.922L351.199 170.409C351.035 172.156 350.709 173.91 350.227 175.636L352.622 181.069C352.737 181.328 352.712 181.629 352.556 181.865L346.523 190.966C346.366 191.202 346.117 191.32 345.818 191.338L339.894 191.248C338.514 192.349 337.02 193.331 335.445 194.173L333.633 198.848C333.53 199.114 333.299 199.306 333.023 199.363L322.32 201.534L322.155 201.549Z" fill="white"/>
<path d="M506.802 219.795L571.237 161.062L562.4 227.3L506.802 219.795ZM638.835 237.614L612.744 234.093L630 104.735L579.658 97.9417L457.542 210.37L451.125 258.467L556.348 272.668L551.099 312.006L601.444 318.799L606.69 279.463L632.783 282.982L638.835 237.614Z" fill="#FE6C0A"/>
<path d="M586.146 317.567L585.995 317.554C585.544 317.471 585.245 317.037 585.328 316.586L624.108 103.902C624.189 103.451 624.627 103.17 625.074 103.234C625.526 103.315 625.825 103.749 625.742 104.201L586.963 316.884C586.889 317.286 586.54 317.567 586.146 317.567Z" fill="#33393F"/>
<path d="M620.555 107.475C620.531 108.226 619.9 108.813 619.147 108.79C618.396 108.763 617.807 108.131 617.832 107.38C617.859 106.628 618.489 106.038 619.24 106.065C619.994 106.091 620.582 106.72 620.555 107.475Z" fill="#33393F"/>
<path d="M615.016 136.236C614.989 136.987 614.359 137.576 613.608 137.551C612.855 137.526 612.266 136.894 612.293 136.143C612.318 135.391 612.949 134.801 613.701 134.828C614.452 134.853 615.041 135.485 615.016 136.236Z" fill="#33393F"/>
<path d="M609.475 164.999C609.45 165.75 608.818 166.339 608.067 166.314C607.315 166.287 606.727 165.657 606.751 164.904C606.778 164.153 607.408 163.564 608.16 163.589C608.913 163.616 609.501 164.248 609.475 164.999Z" fill="#33393F"/>
<path d="M598.58 194.941C598.555 195.692 597.925 196.281 597.172 196.256C596.421 196.229 595.832 195.599 595.857 194.848C595.884 194.096 596.514 193.508 597.265 193.533C598.018 193.559 598.607 194.189 598.58 194.941Z" fill="#33393F"/>
<path d="M598.394 222.525C598.369 223.277 597.739 223.863 596.986 223.84C596.235 223.814 595.646 223.182 595.673 222.43C595.698 221.679 596.328 221.089 597.079 221.115C597.832 221.142 598.421 221.772 598.394 222.525Z" fill="#33393F"/>
<path d="M592.854 251.286C592.828 252.04 592.198 252.626 591.446 252.602C590.695 252.577 590.105 251.945 590.131 251.193C590.156 250.442 590.788 249.853 591.539 249.878C592.291 249.903 592.879 250.535 592.854 251.286Z" fill="#33393F"/>
<path d="M587.314 280.05C587.289 280.801 586.659 281.391 585.908 281.365C585.154 281.34 584.566 280.708 584.591 279.956C584.617 279.203 585.248 278.616 585.999 278.641C586.752 278.666 587.341 279.298 587.314 280.05Z" fill="#33393F"/>
<path d="M581.774 308.813C581.749 309.564 581.118 310.154 580.366 310.128C579.615 310.101 579.026 309.469 579.051 308.718C579.078 307.966 579.708 307.38 580.459 307.403C581.211 307.429 581.801 308.061 581.774 308.813Z" fill="#33393F"/>
<path d="M597.219 195.725C596.835 195.725 596.491 195.459 596.408 195.069C596.312 194.62 596.596 194.179 597.045 194.081L601.174 193.195C601.63 193.105 602.065 193.383 602.162 193.835C602.258 194.282 601.972 194.725 601.523 194.823L597.394 195.709L597.219 195.725Z" fill="#33393F"/>
<path d="M611.003 180.41C611.003 180.41 607.282 190.101 606.03 195.972C604.777 201.843 604.702 214.966 604.702 214.966" fill="#33393F"/>
<path d="M604.702 215.797H604.697C604.238 215.794 603.867 215.42 603.87 214.961C603.874 214.422 603.96 201.686 605.217 195.797C606.469 189.93 610.073 180.51 610.226 180.111C610.391 179.684 610.87 179.471 611.3 179.634C611.729 179.797 611.944 180.279 611.779 180.706C611.741 180.804 608.067 190.405 606.843 196.144C605.623 201.868 605.533 214.841 605.533 214.971C605.53 215.428 605.159 215.797 604.702 215.797Z" fill="#33393F"/>
</svg>
