<svg xmlns="http://www.w3.org/2000/svg" width="683" height="346" fill="none" xmlns:v="https://vecta.io/nano"><path d="M142.493 257.232c-47.844-1.641-85.308-41.764-83.669-89.61 1.642-47.9 41.764-85.361 89.608-83.724s85.31 41.761 83.668 89.661c-1.639 47.847-41.762 85.31-89.606 83.673zm147.626-70.777l.748-21.845-13.413-4.382c-.552-7.465-1.799-14.837-3.576-21.939l11.368-8.382-7.723-20.521-14.061 1.133a128.54 128.54 0 0 0-11.706-18.87l7.285-12.158-14.977-15.978-12.57 6.437c-5.663-4.811-11.633-9.172-18.022-13.026l2.037-13.953-19.947-9.054-9.139 10.712c-6.963-2.259-14.176-3.948-21.639-5.069l-3.4-13.681-21.904-.75-4.325 13.413c-7.525.608-14.837 1.802-21.939 3.578l-8.442-11.313-20.519 7.667 1.135 14.063a133.69 133.69 0 0 0-18.87 11.761l-12.1-7.282-16.036 14.916 6.436 12.627a128.82 128.82 0 0 0-12.969 18.025L17.9 100.491l-9.109 19.942 10.767 9.142c-2.257 6.965-4.008 14.235-5.069 21.643l-13.74 3.45L0 176.517l13.47 4.386c.55 7.521 1.801 14.836 3.577 21.936L5.68 211.222l7.722 20.523 14.062-1.137c3.352 6.635 7.29 12.948 11.705 18.871l-7.285 12.157 14.978 15.98 12.57-6.439c5.606 4.811 11.632 9.173 18.021 13.027l-2.094 13.95 19.946 9.053 9.197-10.709c6.963 2.26 14.176 3.951 21.641 5.071l3.398 13.677 21.904.752 4.327-13.415c7.523-.607 14.835-1.799 21.937-3.576l8.384 11.31 20.519-7.666-1.076-14.058c6.639-3.408 12.891-7.35 18.87-11.764l12.101 7.285 16.035-14.919-6.434-12.627c4.808-5.607 9.17-11.634 12.968-18.025l13.951 2.095 9.109-19.945-10.768-9.14c2.26-6.961 4.007-14.175 5.069-21.641l13.683-3.457zm334.61-104.049a10.76 10.76 0 0 1 15.727-14.685 10.76 10.76 0 0 1-15.727 14.685zm39.262 31.805l5.509-5.145-2.201-4.338a44.83 44.83 0 0 0 4.477-6.221l4.816.727 3.121-6.886-3.706-3.154c.802-2.432 1.38-4.933 1.747-7.453l4.742-1.19.244-7.548-4.635-1.494c-.207-2.554-.6-5.072-1.218-7.571l3.9-2.906-2.657-7.071-4.841.382a46.62 46.62 0 0 0-4.04-6.514l2.507-4.163-5.159-5.526-4.325 2.218a46.69 46.69 0 0 0-6.222-4.477l.7-4.816-6.872-3.136-3.153 3.706c-2.45-.786-4.949-1.365-7.469-1.734l-1.176-4.727-7.547-.273-1.51 4.648a44.65 44.65 0 0 0-7.558 1.234l-2.891-3.912-7.084 2.642.396 4.855c-2.248 1.147-4.447 2.494-6.514 4.042l-4.191-2.509-5.51 5.145 2.215 4.354c-1.699 1.967-3.179 4.057-4.477 6.221l-4.816-.73-3.121 6.889 3.706 3.15a44.52 44.52 0 0 0-1.748 7.456l-4.739 1.187-.246 7.551 4.636 1.493a46.1 46.1 0 0 0 1.217 7.573l-3.912 2.889 2.657 7.072 4.853-.369a46.4 46.4 0 0 0 4.041 6.512l-2.507 4.164 5.158 5.525 4.327-2.216c1.982 1.687 4.055 3.179 6.221 4.477l-.715 4.803 6.875 3.134 3.165-3.691a47.12 47.12 0 0 0 7.47 1.732l1.174 4.729 7.547.271 1.512-4.649a44.09 44.09 0 0 0 7.556-1.232l2.891 3.914 7.085-2.642-.397-4.856c2.248-1.147 4.434-2.479 6.514-4.04l4.178 2.492zM490.645 97.084c-24.435 0-44.721 19.443-45.564 44.05-.861 25.134 18.886 46.281 44.022 47.143 12.177.408 23.792-3.936 32.698-12.264 8.899-8.319 14.03-19.598 14.447-31.755.859-25.136-18.888-46.285-44.022-47.148a45.72 45.72 0 0 0-1.581-.027zm.064 98.242a56.98 56.98 0 0 1-1.847-.031c-29.005-.994-51.793-25.4-50.798-54.402s25.438-51.784 54.402-50.8c29.004.994 51.792 25.4 50.798 54.404a52.29 52.29 0 0 1-16.669 36.645c-9.827 9.185-22.51 14.184-35.886 14.184zm25.79-126.096h.017-.017zm-41.202 157.626l24.953.856 8.264-11.967a3.5 3.5 0 0 1 1.975-1.394c4.597-1.237 9.159-2.985 13.558-5.197l.023-.012c.733-.361 1.588-.472 2.424-.254l11.702 2.979 18.248-17.039-2.183-11.925c-.154-.842.005-1.711.446-2.444 2.407-3.995 4.449-8.378 6.07-13.024a3.53 3.53 0 0 1 1.562-1.951l12.507-7.428.857-24.952-11.977-8.271c-.627-.432-1.094-1.058-1.335-1.777l-.082-.281c-1.251-4.586-2.992-9.091-5.177-13.392a3.52 3.52 0 0 1-.271-2.457l3-11.767-17.041-18.251-11.952 2.188a3.5 3.5 0 0 1-2.43-.439c-4.157-2.48-8.546-4.529-13.045-6.095a3.7 3.7 0 0 1-.733-.341c-.485-.298-.889-.708-1.178-1.197l-7.435-12.519-24.954-.855-8.27 11.977c-.492.713-1.23 1.215-2.066 1.416-4.617 1.265-9.107 3.001-13.39 5.175-.76.384-1.634.482-2.456.271l-11.762-2.999L424.9 90.534l2.183 11.925a3.51 3.51 0 0 1-.315 2.201l-.157.283c-2.413 4.01-4.458 8.405-6.075 13.065a3.52 3.52 0 0 1-1.525 1.867l-12.515 7.432-.855 24.952 11.987 8.278a3.51 3.51 0 0 1 1.393 1.973c1.292 4.782 3.033 9.32 5.171 13.495a3.47 3.47 0 0 1 .284.755 3.5 3.5 0 0 1-.003 1.717l-2.99 11.727 17.041 18.248 11.867-2.171c.835-.152 1.693.003 2.419.432 4.231 2.502 8.642 4.55 13.112 6.093a3.5 3.5 0 0 1 1.954 1.553l7.421 12.497zm26.75 7.938h-.12l-28.789-.985c-1.196-.042-2.288-.689-2.898-1.716l-7.753-13.056c-4.121-1.494-8.182-3.38-12.106-5.616l-12.48 2.283a3.48 3.48 0 0 1-3.197-1.058l-19.661-21.052a3.51 3.51 0 0 1-.836-3.263l3.138-12.32c-1.907-3.9-3.503-8.068-4.753-12.418l-12.52-8.647a3.51 3.51 0 0 1-1.515-3.008l.988-28.791c.04-1.194.687-2.288 1.716-2.898l13.077-7.765c1.551-4.245 3.43-8.288 5.603-12.05l-2.295-12.524c-.214-1.175.185-2.382 1.058-3.197l21.055-19.662a3.51 3.51 0 0 1 3.264-.836l12.359 3.152a77.94 77.94 0 0 1 12.386-4.773l8.638-12.512c.68-.984 1.796-1.593 3.009-1.513l28.79.987c1.195.04 2.287.687 2.898 1.716l7.767 13.077a78.09 78.09 0 0 1 12.015 5.606l12.558-2.299c1.179-.214 2.381.183 3.199 1.056l19.659 21.057c.816.876 1.131 2.105.836 3.263l-3.15 12.364c1.947 4.002 3.548 8.155 4.773 12.381l12.51 8.639a3.51 3.51 0 0 1 1.515 3.009l-.986 28.791a3.51 3.51 0 0 1-1.717 2.898l-13.083 7.769c-1.549 4.244-3.428 8.286-5.596 12.041l2.293 12.529a3.51 3.51 0 0 1-1.057 3.197l-21.054 19.659a3.5 3.5 0 0 1-3.264.835l-12.304-3.134a79.06 79.06 0 0 1-12.449 4.771l-8.632 12.499c-.656.951-1.737 1.514-2.889 1.514z" fill="#e7e8e5"/><path d="M568.366 27.596l-11.927-3.204-3.202-11.925 4.67-4.668L562.833 18l10.203 4.926-4.67 4.67zm.741-7.983a5.59 5.59 0 0 0-.001-7.887c-2.172-2.171-5.698-2.156-7.871.015l5.932-8.898 7.957 4.022 1.744 8.359-7.761 4.389z" fill="#dadbd8"/><path d="M572.835 15.885a5.59 5.59 0 0 0 0-7.889 5.57 5.57 0 0 0-7.87.017 5.55 5.55 0 0 0 0 7.855 5.57 5.57 0 0 0 7.87.017zM556.966 8.74l8.74-8.74 11.925 3.202 3.202 11.925-8.738 8.742-11.927-3.204-3.202-11.925z" fill="#ededeb"/><path d="M80.889 345.773l6.399-1.719 1.718-6.397-2.505-2.505-2.644 5.473-5.474 2.645 2.505 2.503zm-.398-4.282a3 3 0 0 1 0-4.233 2.99 2.99 0 0 1 4.223.008l-3.183-4.774-4.27 2.158-.935 4.485 4.165 2.356z" fill="#dadbd8"/><path d="M78.49 339.489c-1.166-1.165-1.166-3.065.001-4.231a2.99 2.99 0 0 1 4.223.008 2.98 2.98 0 0 1 0 4.215 2.99 2.99 0 0 1-4.224.008zm8.517-3.835l-4.69-4.688-6.399 1.717-1.719 6.401 4.69 4.689 6.399-1.719 1.719-6.4z" fill="#ededeb"/><path d="M112.554 98.126c-.281.259-1.089 1.305-2.247 5.355-1.53 5.342-.587 10.215 1.208 13.709.344-.72.584-1.551.748-2.331 1.724-8.162 1.222-15.551.291-16.733zm10.95 5.239c-.431.806-1.151 2.467-2.228 5.867-1.428 4.502-1.435 8.12-.64 10.886l.154-.417c1.956-5.716 2.908-13.591 2.714-16.336zm11.923 7.004c-.005 0-.941.007-3.037 3.9-2.406 4.464-3.018 8.138-1.876 11.234a8.97 8.97 0 0 0 .501 1.114 4.9 4.9 0 0 0 2.196-1.836c2.328-3.559 3.443-10.869 2.577-13.727-.178-.585-.359-.685-.361-.685zm9.4 27.38l-.299-.057c-7.483-2.897-11.96-5.729-14.286-9.13-1.689.339-3.58.115-5.373-.738-1.743-.828-3.419-2.276-4.622-4.359-1.124.864-2.511 1.102-4.033.623-1.69-.532-3.447-1.953-4.908-4.008-.929.671-1.882.771-2.58.713-4.943-.402-11.641-10.241-12.121-20.725a.83.83 0 0 1 .793-.868c.449-.038.848.332.868.793.456 9.95 6.833 18.838 10.595 19.142.61.06 1.121-.131 1.55-.463-2.26-3.962-3.43-9.613-1.701-15.648 1.43-4.996 2.692-6.949 4.209-6.587 2.863.712 2.488 11.59.971 18.767-.344 1.626-.839 2.794-1.404 3.629 1.311 1.937 2.866 3.24 4.227 3.669 1.216.381 2.117.058 2.783-.575-1.306-3.219-1.577-7.605.197-13.199 2.332-7.361 3.271-7.563 3.833-7.681.396-.083.792.047 1.073.366 1.536 1.734-.3 13.17-2.235 18.826a8.27 8.27 0 0 1-.926 1.924c1.033 2.023 2.552 3.401 4.145 4.158 1.277.608 2.587.828 3.779.716-.15-.314-.285-.633-.406-.957-1.317-3.571-.673-7.691 1.97-12.599 1.754-3.255 3.184-4.773 4.501-4.775h.001c.393 0 1.122.145 1.641 1.101 1.45 2.675.399 11.503-2.465 15.884-.675 1.032-1.608 1.813-2.69 2.324 2.227 2.929 6.457 5.509 13.215 8.13a.83.83 0 0 1-.301 1.604zm67.531 68.548c.093.26.464.943 1.939 2.308 2.472 2.284 4.718 3.3 6.867 3.064a4.81 4.81 0 0 0 .532-.08c-.118-.504-.357-.971-.721-1.371-2.339-2.564-7.481-4.187-8.617-3.921zm-5.802 7.064l2.504 1.675c2.256 1.409 4.267 2.061 5.986 2.197-2.756-1.707-6.359-3.22-8.49-3.872zm1.476 11.53c-2.535 0-5.202-.577-7.582-1.975-.398-.235-.529-.742-.298-1.139s.743-.525 1.139-.296c5.93 3.481 13.596 1.052 15.173-1.485.183-.297.351-.675.245-1.115-2.346.249-5.23-.372-8.53-2.437-4.232-2.644-4.557-3.43-4.531-4.06a1.02 1.02 0 0 1 .567-.87c1.654-.839 9.152 2.617 12.278 4.67.409.27.755.561 1.034.87 1.381-.338 2.452-1.051 3.164-1.905.487-.586.814-1.226.975-1.866l-.332.04c-2.658.269-5.325-.873-8.165-3.498-1.951-1.804-2.71-3.047-2.457-4.033.08-.313.343-.873 1.194-1.086 2.301-.572 7.977 1.847 10.297 4.391.522.572.878 1.245 1.066 1.968 2.17-1.019 4.464-3.305 7.18-7.1a.83.83 0 0 1 1.161-.193c.372.266.459.786.193 1.16-3.142 4.388-5.761 6.875-8.391 7.891-.103 1.17-.587 2.36-1.445 3.391-.843 1.009-2.071 1.877-3.626 2.346.167.748.017 1.54-.465 2.313-1.402 2.257-5.422 4.018-9.844 4.018z" fill="#33393f"/><path d="M98.965 246.424l43.157-75.758 12.042 65.729-55.199 10.029zm131.086-23.814l-25.906 4.705-23.519-128.364-49.98 9.079-81.445 144.636 8.745 47.728 104.467-18.978 7.152 39.037 49.982-9.078-7.152-39.036 25.905-4.708-8.249-45.021zM438.675 90.219c-.966-8.868-2.738-16.748-5.315-23.638s-6.449-13.646-11.621-20.266-12.211-12.362-21.12-17.234-20.672-8.258-35.282-10.161c-30.41-3.962-54.118 1.437-71.125 16.193s-28.2 43.027-33.58 84.808c-2.187 16.992-2.729 32.7-1.622 47.124 1.1 14.42 3.747 26.021 7.942 34.799 5.737 12.334 13.857 22.185 24.354 29.546s24.876 12.236 43.142 14.617c32.58 4.243 56.725-2.01 72.434-18.766s26.129-45.074 31.263-84.956c2.291-17.791 2.467-35.147.53-52.067z" fill="#fe6c0a"/><path d="M349.459 228.942c-3.999-.138-8.255-.498-12.649-1.072-15.218-1.98-26.994-5.832-35.001-11.45-7.898-5.539-13.876-12.828-18.274-22.287l-.083-.171c-3.195-6.689-5.283-16.217-6.208-28.31-1.006-13.113-.492-27.714 1.526-43.396 5.934-46.086 18.19-65.315 27.427-73.328 10.77-9.343 25.305-13.568 44.439-12.911 3.92.133 8.071.484 12.337 1.039 12.281 1.599 21.997 4.318 28.88 8.075 6.665 3.644 11.872 7.832 15.476 12.446 3.997 5.114 6.991 10.298 8.901 15.408 2.033 5.438 3.468 11.903 4.266 19.215 1.771 15.477 1.603 31.512-.487 47.751-4.61 35.809-13.516 60.969-26.467 74.781-9.608 10.25-24.027 14.898-44.08 14.211h-.003z" fill="#33393f"/><path d="M339.442 111.11c-13.79-.472-24.59-12.036-24.116-25.828.472-13.807 12.038-24.605 25.829-24.133s24.59 12.037 24.116 25.844c-.472 13.793-12.038 24.591-25.829 24.118zm42.552-20.4l.216-6.298-3.867-1.262a37.43 37.43 0 0 0-1.031-6.324l3.277-2.416-2.224-5.915-4.055.326c-.966-1.912-2.101-3.732-3.373-5.438l2.099-3.504-4.317-4.605-3.623 1.854c-1.632-1.386-3.353-2.642-5.195-3.752l.587-4.023-5.749-2.61-2.634 3.089a38.81 38.81 0 0 0-6.237-1.461l-.981-3.943-6.313-.216-1.247 3.865c-2.169.176-4.277.52-6.324 1.031l-2.434-3.26-5.913 2.209.326 4.055c-1.912.983-3.733 2.116-5.438 3.39l-3.488-2.1-4.624 4.299 1.856 3.641c-1.387 1.614-2.644 3.352-3.738 5.195l-4.021-.605-2.625 5.749 3.102 2.635a37.68 37.68 0 0 0-1.462 6.238l-3.96.996-.214 6.298 3.882 1.264a37.12 37.12 0 0 0 1.031 6.322l-3.277 2.419 2.226 5.914 4.053-.326c.966 1.912 2.101 3.731 3.375 5.438l-2.101 3.505 4.317 4.605 3.624-1.856c1.616 1.387 3.352 2.645 5.194 3.756l-.603 4.022 5.748 2.608 2.652-3.086a39.13 39.13 0 0 0 6.238 1.462l.979 3.942 6.314.216 1.247-3.867c2.168-.175 4.276-.517 6.323-1.031l2.417 3.26 5.915-2.209-.311-4.052a39.68 39.68 0 0 0 5.44-3.391l3.488 2.099 4.622-4.301-1.854-3.637c1.385-1.618 2.642-3.355 3.737-5.197l4.022.605 2.625-5.751-3.104-2.635a37.03 37.03 0 0 0 1.462-6.238l3.943-.996zm-2.623 138.829l-4.245-.475-.47-2.722-.308-.071c7.797-2.333 14.158-6.167 19.194-11.54 5.242-5.591 9.822-13.04 13.722-22.304l.83 2.883-2.328 1.476a26.16 26.16 0 0 1 .378 4.314l2.552 1.039-.456 4.246-2.74.471a27.17 27.17 0 0 1-1.29 4.118l1.957 1.935-2.053 3.742-2.685-.596a27.17 27.17 0 0 1-2.798 3.308l1.08 2.547-3.341 2.668-2.24-1.594a26.7 26.7 0 0 1-3.843 1.988l.003 2.762-4.088 1.203-1.476-2.345c-1.429.242-2.873.387-4.313.395l-1.042 2.552z" fill="#fe6c0a"/><path d="M368.583 227.012l-3.743-2.055.617-2.705a25.19 25.19 0 0 1-3.308-2.776l-2.567 1.079-2.669-3.342 1.596-2.259c-.776-1.214-1.431-2.5-1.99-3.824l-2.763.004-1.202-4.108 2.348-1.475c-.245-1.41-.389-2.855-.379-4.294l-2.551-1.061.456-4.244 2.72-.451c.321-1.41.756-2.776 1.31-4.14l-1.957-1.935 2.053-3.742 2.684.598c.839-1.197 1.79-2.292 2.779-3.31l-1.06-2.547 3.32-2.668 2.261 1.596a26.6 26.6 0 0 1 3.843-1.988l-.023-2.765 4.108-1.2 1.476 2.345c1.429-.244 2.853-.389 4.313-.397l1.041-2.55 4.244.475.472 2.718c1.39.321 2.777.739 4.118 1.309l1.955-1.975 3.743 2.053-.619 2.705a25.17 25.17 0 0 1 3.31 2.778l2.547-1.061 2.669 3.322-1.576 2.261c.776 1.212 1.431 2.5 1.988 3.842l2.763-.022.354 1.224c-3.9 9.264-8.48 16.713-13.722 22.304-5.036 5.373-11.397 9.207-19.194 11.54-1.287-.309-2.568-.705-3.812-1.216l-1.953 1.957zm11.743-33.255c-2.615 0-5.147 1.387-6.495 3.842a7.43 7.43 0 0 0 2.923 10.082 7.37 7.37 0 0 0 3.556.914c2.625 0 5.175-1.397 6.527-3.859 1.97-3.589.647-8.089-2.944-10.06a7.39 7.39 0 0 0-3.567-.919z" fill="#3a3a3a"/><path d="M398.99 150.539c-6.544-.225-11.654-5.718-11.432-12.242a11.84 11.84 0 0 1 12.241-11.431c6.544.223 11.656 5.697 11.432 12.243a11.85 11.85 0 0 1-12.241 11.43zm32.803-16l-4.956-3.424-.003-.011c-.491-1.801-1.168-3.535-1.994-5.162l1.27-4.983-7.187-7.697-5.06.926a27.24 27.24 0 0 0-5.01-2.341l-.013-.003-3.075-5.181-10.527-.361-3.422 4.956-.02.005a27.36 27.36 0 0 0-5.155 1.99l-4.981-1.27-7.699 7.191.926 5.049-.004.005c-.954 1.584-1.729 3.267-2.34 5.027l-5.179 3.076-.361 10.527 4.959 3.423c.491 1.814 1.146 3.543 1.989 5.185v.002l-1.265 4.967 7.187 7.699 5.029-.921c1.586.938 3.27 1.733 5.054 2.345l.003.001 3.072 5.172 10.526.361 3.42-4.951c1.82-.49 3.552-1.167 5.2-1.995h.002l4.957 1.264 7.698-7.187-.925-5.051a26.72 26.72 0 0 0 2.341-5.031l5.182-3.077.361-10.525z" fill="#fff"/><path d="M459.497 39.756a4.45 4.45 0 0 1 3.596-5.162c2.42-.432 4.728 1.175 5.16 3.596s-1.173 4.726-3.594 5.16a4.45 4.45 0 0 1-5.162-3.594zm8.459 10.783l.868-2.086.003-.003a10.36 10.36 0 0 0 1.739-1.139l1.928.075 2.261-3.247-.738-1.784a10.16 10.16 0 0 0 .464-2.025l.002-.005 1.659-1.538-.697-3.893-2.089-.864-.004-.007a10.14 10.14 0 0 0-1.137-1.737l.075-1.929-3.247-2.261-1.781.738-.001-.002c-.657-.226-1.337-.377-2.032-.462l-1.536-1.659-3.894.695-.867 2.092a9.83 9.83 0 0 0-1.748 1.139l-1.923-.073L453 33.807l.735 1.772a10.34 10.34 0 0 0-.464 2.041v.002l-1.658 1.536.697 3.894 2.088.864a10.34 10.34 0 0 0 1.14 1.752l.002.002-.073 1.919 3.245 2.261 1.781-.736c.658.226 1.336.377 2.031.462h.002l1.538 1.659 3.892-.697zM422.345 39.51l-1.269-1.072c2.206-2.614 5.337-5.925 9.989-8.361l.769 1.475c-4.957 2.593-8.133 6.354-9.489 7.958zm13.273-9.457l-.657-1.529c6.289-2.693 12.86-3.744 19.516-3.126l-.154 1.656c-6.384-.608-12.675.412-18.705 2.999zm-3.139 11.502l-1.375-.934c3.415-5.016 10.163-9.383 16.413-10.622l.322 1.629c-5.855 1.164-12.171 5.245-15.36 9.927z" fill="#fe6c0a"/><path d="M303.906 156.174c-3.023 4.562-4.088 10.029-2.998 15.392s4.202 9.982 8.763 13.006c9.42 6.239 22.16 3.659 28.398-5.756s3.659-22.161-5.756-28.407c-9.413-6.24-22.156-3.654-28.407 5.765zm17.054 33.463c-4.203 0-8.449-1.188-12.208-3.679a22.01 22.01 0 0 1-9.473-14.061 22 22 0 0 1 3.24-16.64h.002c6.758-10.183 20.535-12.98 30.71-6.235 10.179 6.753 12.971 20.531 6.224 30.712-4.256 6.424-11.311 9.903-18.495 9.903zm-8.176 5.38l.234.033a27.62 27.62 0 0 0 5.505 1.025c.201.016.389.106.528.251l3.384 3.488 9.812-1.99 1.762-4.542a.84.84 0 0 1 .391-.438 27.57 27.57 0 0 0 4.68-3.075c.151-.125.322-.208.538-.188l5.769.088 5.531-8.346-2.334-5.292c-.08-.179-.091-.38-.036-.568.525-1.814.869-3.666 1.022-5.505.017-.201.105-.387.249-.528l3.492-3.385-1.99-9.811-4.534-1.759c-.193-.075-.351-.218-.442-.402a26.97 26.97 0 0 0-3.078-4.665.84.84 0 0 1-.189-.54l.088-5.776-8.344-5.531-5.28 2.329c-.18.077-.379.09-.567.038a28.35 28.35 0 0 0-5.525-1.024.83.83 0 0 1-.527-.249l-3.381-3.485-9.811 1.99-1.757 4.534a.83.83 0 0 1-.392.436c-1.656.862-3.232 1.9-4.684 3.083-.151.123-.354.212-.54.19l-5.769-.09-5.529 8.348 2.33 5.283c.1.228.094.487-.016.708-.469 1.661-.813 3.517-.969 5.377-.017.199-.105.386-.25.527l-3.488 3.383 1.989 9.812 4.532 1.756c.202.078.365.233.455.427a27.1 27.1 0 0 0 3.064 4.64.84.84 0 0 1 .191.544l-.088 5.772 8.346 5.533 5.292-2.334.336-.072zm9.371 6.532c-.223 0-.439-.088-.597-.253l-3.486-3.592c-1.775-.168-3.531-.494-5.229-.974l-5.433 2.395c-.257.12-.557.088-.794-.066l-9.102-6.035a.83.83 0 0 1-.373-.705l.092-5.925a28.7 28.7 0 0 1-2.938-4.451l-4.663-1.807c-.263-.103-.458-.332-.514-.61l-2.17-10.702a.84.84 0 0 1 .236-.763l3.593-3.484c.166-1.766.492-3.525.971-5.236l-2.394-5.426a.83.83 0 0 1 .068-.795l6.033-9.104c.157-.236.378-.382.707-.372l5.92.091a29.23 29.23 0 0 1 4.454-2.934l1.809-4.665c.103-.264.332-.459.61-.515l10.701-2.17a.84.84 0 0 1 .764.235l3.481 3.589a29.86 29.86 0 0 1 5.242.973l5.425-2.391a.83.83 0 0 1 .794.068l9.102 6.033a.83.83 0 0 1 .371.707l-.09 5.927c1.108 1.378 2.092 2.871 2.933 4.447l4.667 1.81c.266.102.459.331.515.609l2.17 10.701c.056.278-.034.566-.236.763l-3.595 3.487a29.83 29.83 0 0 1-.972 5.227l2.395 5.433c.115.259.09.56-.066.796l-6.033 9.101c-.157.236-.406.354-.705.372l-5.924-.09c-1.38 1.101-2.874 2.083-4.449 2.925l-1.812 4.675c-.103.266-.334.458-.61.515l-10.703 2.171-.165.015z" fill="#fff"/><path d="M506.802 219.795l64.435-58.733L562.4 227.3l-55.598-7.505zm132.033 17.819l-26.091-3.521L630 104.735l-50.342-6.793L457.542 210.37l-6.417 48.097 105.223 14.201-5.249 39.338 50.345 6.793 5.246-39.336 26.093 3.519 6.052-45.368z" fill="#fe6c0a"/><g fill="#33393f"><path d="M586.146 317.567l-.151-.013a.83.83 0 0 1-.667-.968l38.78-212.684c.081-.451.519-.732.966-.668a.83.83 0 0 1 .668.967l-38.779 212.683a.83.83 0 0 1-.817.683zm34.409-210.092c-.024.751-.655 1.338-1.408 1.315s-1.34-.659-1.315-1.41.657-1.342 1.408-1.315a1.36 1.36 0 0 1 1.315 1.41zm-5.539 28.761c-.027.751-.657 1.34-1.408 1.315a1.362 1.362 0 1 1 .093-2.723c.751.025 1.34.657 1.315 1.408zm-5.541 28.763c-.025.751-.657 1.34-1.408 1.315s-1.34-.657-1.316-1.41.657-1.34 1.409-1.315 1.341.659 1.315 1.41zm-10.895 29.942c-.025.751-.655 1.34-1.408 1.315s-1.34-.657-1.315-1.408.657-1.34 1.408-1.315a1.36 1.36 0 0 1 1.315 1.408zm-.186 27.584c-.025.752-.655 1.338-1.408 1.315a1.36 1.36 0 1 1 .093-2.725c.753.027 1.342.657 1.315 1.41zm-5.54 28.761c-.026.754-.656 1.34-1.408 1.316s-1.341-.657-1.315-1.409.657-1.34 1.408-1.315 1.34.657 1.315 1.408zm-5.54 28.764a1.36 1.36 0 0 1-1.406 1.315c-.754-.025-1.342-.657-1.317-1.409s.657-1.34 1.408-1.315a1.36 1.36 0 0 1 1.315 1.409zm-5.54 28.763c-.025.751-.656 1.341-1.408 1.315s-1.34-.659-1.315-1.41.657-1.338 1.408-1.315 1.342.658 1.315 1.41z"/><path d="M597.219 195.725a.83.83 0 0 1-.811-.656.83.83 0 0 1 .637-.988l4.129-.886c.456-.09.891.188.988.64a.83.83 0 0 1-.639.988l-4.129.886-.175.016zm13.784-15.315s-3.721 9.691-4.973 15.562-1.328 18.994-1.328 18.994"/><path d="M604.702 215.797h-.005a.83.83 0 0 1-.827-.836c.004-.539.09-13.275 1.347-19.164 1.252-5.867 4.856-15.287 5.009-15.686.165-.427.644-.64 1.074-.477a.83.83 0 0 1 .479 1.072c-.038.098-3.712 9.699-4.936 15.438-1.22 5.724-1.31 18.697-1.31 18.827a.83.83 0 0 1-.831.826z"/></g></svg>