<svg width="15" height="15" viewBox="0 0 15 15" fill="none" xmlns="http://www.w3.org/2000/svg">
<g clip-path="url(#clip0_1097_465)">
<path d="M10.7143 2.67865H1.60714C0.719541 2.67865 0 3.39819 0 4.28579V13.3929C0 14.2805 0.719541 15.0001 1.60714 15.0001H10.7143C11.6019 15.0001 12.3214 14.2805 12.3214 13.3929V4.28579C12.3214 3.39819 11.6019 2.67865 10.7143 2.67865ZM11.25 13.3929C11.25 13.6888 11.0101 13.9287 10.7143 13.9287H1.60714C1.31126 13.9287 1.07142 13.6888 1.07142 13.3929V4.28579C1.07142 3.98991 1.31126 3.75007 1.60714 3.75007H10.7143C11.0101 3.75007 11.25 3.98991 11.25 4.28579V13.3929Z" fill="#F2F5F7"/>
<path d="M13.3926 0H3.74972C2.86212 0 2.14258 0.719541 2.14258 1.60714C2.14258 1.90302 2.38243 2.14287 2.6783 2.14287C2.97418 2.14287 3.214 1.90302 3.214 1.60714C3.214 1.31126 3.45384 1.07142 3.74972 1.07142H13.3926C13.6884 1.07142 13.9283 1.31126 13.9283 1.60714V11.25C13.9283 11.5459 13.6884 11.7857 13.3926 11.7857C13.0967 11.7857 12.8568 12.0256 12.8568 12.3214C12.8568 12.6173 13.0967 12.8572 13.3926 12.8572C14.2802 12.8572 14.9997 12.1376 14.9997 11.25V1.60714C14.9997 0.719541 14.2802 0 13.3926 0Z" fill="#F2F5F7"/>
</g>
<defs>
<clipPath id="clip0_1097_465">
<rect width="15" height="15" fill="white"/>
</clipPath>
</defs>
</svg>
