<svg width="22" height="22" viewBox="0 0 22 22" fill="none" xmlns="http://www.w3.org/2000/svg">
<g clip-path="url(#clip0)">
<path d="M-1.13245e-06 12.666C-1.2362e-06 13.8527 0.965464 14.8181 2.15217 14.8181L7.34254 14.8181L6.58694 16.8795C6.58449 16.8862 6.58217 16.8928 6.57993 16.8995C6.21577 17.9918 6.30742 19.138 6.84505 20.2143C7.25072 21.0257 8.06609 21.5297 8.97295 21.5297L9.22509 21.5297C9.83576 21.5297 10.3523 21.0526 10.4011 20.4437C10.4865 19.3789 10.9432 18.3704 11.6871 17.6035L15.8438 13.3833L16.2609 13.3833L16.2609 14.1007C16.2609 14.4969 16.5821 14.8181 16.9783 14.8181L21.2826 14.8181C21.6788 14.8181 22 14.4969 22 14.1007L22 1.18767C22 0.791502 21.6788 0.470268 21.2826 0.470268L16.9782 0.470268C16.5821 0.470268 16.2608 0.79146 16.2608 1.18767L16.2608 1.90508L4.30431 1.90508C3.1176 1.90508 2.15213 2.87054 2.15213 4.05725C2.15213 4.44071 2.25285 4.801 2.42937 5.11313C1.83163 5.49593 1.43473 6.16586 1.43473 6.92684C1.43473 7.31029 1.53545 7.67058 1.71196 7.98271C1.11422 8.36551 0.717319 9.03544 0.717319 9.79642C0.717319 10.1799 0.818038 10.5402 0.994554 10.8523C0.396901 11.235 -1.06593e-06 11.905 -1.13245e-06 12.666ZM17.6956 12.666L17.6956 2.62249L17.6956 1.90508L20.5652 1.90508L20.5652 13.3833L17.6956 13.3833L17.6956 12.666ZM2.15217 11.9486L2.86958 11.9486L4.30435 11.9486C4.70052 11.9486 5.02176 11.6274 5.02176 11.2311C5.02176 10.8349 4.70057 10.5137 4.30435 10.5137L2.86958 10.5137C2.47401 10.5137 2.15217 10.1919 2.15218 9.79633C2.15218 9.40076 2.47401 9.07893 2.86958 9.07893L3.58699 9.07893L5.02176 9.07893C5.41793 9.07893 5.73916 8.75773 5.73916 8.36152C5.73916 7.9653 5.41797 7.64411 5.02176 7.64411L3.58699 7.64411C3.19142 7.64411 2.86958 7.32228 2.86958 6.92671C2.86958 6.53114 3.19142 6.2093 3.58699 6.2093L4.30439 6.2093C4.34199 6.2093 4.3786 6.20552 4.4147 6.19998L5.78682 6.19998C6.18299 6.19998 6.50422 5.87879 6.50422 5.48257C6.50422 5.0864 6.18303 4.76517 5.78682 4.76517L4.35205 4.76517C4.31986 4.76517 4.28845 4.76804 4.25739 4.77213C3.88373 4.74772 3.58699 4.4368 3.58699 4.05713C3.58699 3.66155 3.90882 3.33972 4.30439 3.33972L16.2609 3.33972L16.2609 11.9486L15.5435 11.9486C15.3513 11.9486 15.1672 12.0257 15.0324 12.1626L10.663 16.5986C10.6618 16.5998 10.6606 16.6011 10.6595 16.6023C9.73741 17.5518 9.15144 18.7844 8.99435 20.095L8.97295 20.095C8.61309 20.095 8.2894 19.8949 8.12848 19.573C7.76097 18.8373 7.69695 18.0938 7.938 17.3628L9.04316 14.3477C9.12386 14.1276 9.09189 13.8821 8.95769 13.6899C8.8235 13.4978 8.60398 13.3834 8.36958 13.3834L2.15217 13.3834C1.7566 13.3834 1.43477 13.0615 1.43477 12.666C1.43477 12.2704 1.7566 11.9486 2.15217 11.9486Z" fill="#CC2D0A"/>
</g>
<defs>
<clipPath id="clip0">
<rect width="22" height="22" fill="white" transform="translate(22 22) rotate(-180)"/>
</clipPath>
</defs>
</svg>
