<svg width="19" height="19" viewBox="0 0 19 19" fill="none" xmlns="http://www.w3.org/2000/svg">
<g clip-path="url(#clip0_1638_2521)">
<path d="M7.61418 7.6944L6.50815 11.3827C6.41422 11.6964 6.50003 12.0368 6.73167 12.2681C6.90098 12.4374 7.12857 12.529 7.36137 12.529C7.44689 12.529 7.533 12.5169 7.61708 12.4914L11.3057 11.3856C11.4469 11.3433 11.5756 11.2667 11.6797 11.1624L18.4423 4.39979C18.6093 4.23279 18.7032 4.00608 18.7032 3.77008C18.7032 3.53409 18.6093 3.30737 18.4423 3.14038L15.8594 0.557801C15.5115 0.2099 14.9479 0.2099 14.6 0.557801L7.83771 7.32041C7.73333 7.42478 7.6568 7.55292 7.61418 7.6944ZM9.25598 8.42093L15.2297 2.4469L16.5529 3.77008L10.5792 9.74411L8.68948 10.3106L9.25598 8.42093Z" fill="black"/>
<path d="M17.8125 8.60938C17.3205 8.60938 16.9219 9.0083 16.9219 9.5V15.4375C16.9219 16.2562 16.2559 16.9219 15.4375 16.9219H3.5625C2.74406 16.9219 2.07812 16.2562 2.07812 15.4375V3.5625C2.07812 2.74377 2.74406 2.07812 3.5625 2.07812H9.5C9.99199 2.07812 10.3906 1.6792 10.3906 1.1875C10.3906 0.695804 9.99199 0.296875 9.5 0.296875H3.5625C1.76183 0.296875 0.296875 1.76211 0.296875 3.5625V15.4375C0.296875 17.2379 1.76183 18.7031 3.5625 18.7031H15.4375C17.2382 18.7031 18.7031 17.2379 18.7031 15.4375V9.5C18.7031 9.0083 18.3045 8.60938 17.8125 8.60938Z" fill="black"/>
</g>
<defs>
<clipPath id="clip0_1638_2521">
<rect width="19" height="19" fill="white"/>
</clipPath>
</defs>
</svg>
