<svg width="180" height="51" viewBox="0 0 180 51" fill="none" xmlns="http://www.w3.org/2000/svg">
<path d="M25.8314 8.59187C28.2023 7.36918 31.0077 9.17155 30.8811 11.8361L29.6733 37.266C29.5468 39.9306 26.5832 41.4589 24.3388 40.017L2.91986 26.2561C0.675537 24.8142 0.833727 21.4835 3.2046 20.2608L25.8314 8.59187Z" fill="url(#paint0_linear)"/>
<path d="M27.2267 20.2599L12.7954 5.51999L16.0798 12.5468L8.14091 13.0503L17.7031 19.633L11.1485 26.2408L22.7636 29.9876L20.7965 34.9819L33.731 45.4151L25.828 34.246L28.9901 27.8597L21.3872 24.6825L27.2267 20.2599Z" fill="#3A3A3A"/>
<path d="M27.2267 20.2599L21.3872 24.6825L28.9901 27.8597L25.828 34.246L32.4697 43.5303L23.7938 34.223L26.8613 28.596L18.1667 25.0751L23.6891 20.1316L15.6712 9.47004L12.7954 5.51999L27.2267 20.2599Z" fill="url(#paint1_linear)"/>
<path d="M53.5387 34.0008C53.3481 33.377 53.1315 32.7359 52.8889 32.0775C52.6637 31.4191 52.4384 30.7607 52.2132 30.1023H45.196C44.9707 30.7607 44.7368 31.4191 44.4942 32.0775C44.269 32.7359 44.0611 33.377 43.8705 34.0008H39.6602C40.3359 32.0602 40.977 30.2669 41.5834 28.6209C42.1898 26.9749 42.7789 25.4241 43.3507 23.9687C43.9398 22.5133 44.5116 21.1358 45.066 19.8364C45.6378 18.5195 46.2269 17.2374 46.8333 15.9899H50.7058C51.2949 17.2374 51.8753 18.5195 52.4471 19.8364C53.0189 21.1358 53.5907 22.5133 54.1624 23.9687C54.7515 25.4241 55.3493 26.9749 55.9557 28.6209C56.5622 30.2669 57.2032 32.0602 57.879 34.0008H53.5387ZM48.6786 20.0703C48.592 20.3302 48.462 20.6853 48.2888 21.1358C48.1155 21.5863 47.9162 22.1061 47.691 22.6952C47.4657 23.2843 47.2145 23.9341 46.9373 24.6445C46.6774 25.3548 46.4088 26.0999 46.1316 26.8796H51.2516C50.9744 26.0999 50.7058 25.3548 50.4459 24.6445C50.186 23.9341 49.9348 23.2843 49.6922 22.6952C49.467 22.1061 49.2677 21.5863 49.0944 21.1358C48.9212 20.6853 48.7826 20.3302 48.6786 20.0703Z" fill="white"/>
<path d="M72.2436 30.5181V34.0008H60.2103V15.9899H64.2647V30.5181H72.2436Z" fill="white"/>
<path d="M74.8549 34.0008V15.9899H87.0181V19.3945H78.9093V22.9291H86.1085V26.2558H78.9093V30.5961H87.6159V34.0008H74.8549Z" fill="white"/>
<path d="M101.468 34.0008C100.965 32.9958 100.411 31.9822 99.8045 30.96C99.2154 29.9204 98.531 28.8635 97.7513 27.7892C97.5087 28.1011 97.1968 28.5343 96.8157 29.0887C96.4518 29.6431 96.0793 30.2322 95.6981 30.856C95.3342 31.4798 94.9877 32.0775 94.6585 32.6493C94.3293 33.2211 94.0867 33.6716 93.9308 34.0008H89.3046C90.067 32.5973 90.9506 31.1246 91.9556 29.5825C92.9778 28.0404 94.1127 26.4031 95.3602 24.6704L89.5645 15.9899H94.4766L97.9852 21.6037L101.416 15.9899H106.042L100.324 24.7224C101.78 26.611 103.001 28.361 103.989 29.9724C104.976 31.5664 105.756 32.9092 106.328 34.0008H101.468Z" fill="white"/>
<path d="M122.429 34.3906C121.268 34.3906 120.185 34.1827 119.18 33.7669C118.192 33.351 117.326 32.7446 116.581 31.9476C115.853 31.1506 115.273 30.1716 114.84 29.0107C114.424 27.8325 114.216 26.4897 114.216 24.9823C114.216 23.4749 114.441 22.1408 114.892 20.9799C115.36 19.8017 115.975 18.8141 116.737 18.0171C117.499 17.2201 118.383 16.6223 119.388 16.2238C120.393 15.808 121.441 15.6 122.533 15.6C123.209 15.6 123.824 15.6434 124.378 15.73C124.933 15.8166 125.418 15.9292 125.833 16.0679C126.249 16.1891 126.605 16.3191 126.899 16.4577C127.194 16.579 127.419 16.6916 127.575 16.7956L127.003 18.329C126.57 18.0691 126.015 17.8178 125.34 17.5753C124.681 17.3154 123.858 17.1854 122.871 17.1854C121.744 17.1854 120.757 17.376 119.908 17.7572C119.076 18.1384 118.374 18.6755 117.803 19.3685C117.231 20.0616 116.798 20.8846 116.503 21.8376C116.226 22.7905 116.087 23.8474 116.087 25.0083C116.087 26.2039 116.226 27.2868 116.503 28.257C116.798 29.21 117.222 30.0243 117.777 30.7001C118.331 31.3758 119.007 31.8956 119.804 32.2595C120.618 32.6233 121.545 32.8052 122.585 32.8052C123.728 32.8052 124.681 32.7013 125.444 32.4934C126.223 32.2681 126.812 32.0429 127.211 31.8176L127.705 33.325C127.583 33.4117 127.376 33.5156 127.081 33.6369C126.786 33.7409 126.414 33.8535 125.963 33.9748C125.513 34.0961 124.993 34.1914 124.404 34.2607C123.815 34.3473 123.157 34.3906 122.429 34.3906Z" fill="#FE6C0A"/>
<path d="M146.718 24.9823C146.718 26.5244 146.493 27.8845 146.043 29.0627C145.592 30.2409 144.977 31.2285 144.197 32.0256C143.435 32.8052 142.543 33.3943 141.521 33.7929C140.498 34.1914 139.415 34.3906 138.272 34.3906C137.128 34.3906 136.045 34.1914 135.023 33.7929C134.001 33.3943 133.1 32.8052 132.32 32.0256C131.558 31.2285 130.951 30.2409 130.501 29.0627C130.05 27.8845 129.825 26.5244 129.825 24.9823C129.825 23.4403 130.05 22.0888 130.501 20.9279C130.951 19.7497 131.558 18.7708 132.32 17.9911C133.1 17.1941 134.001 16.5963 135.023 16.1978C136.045 15.7993 137.128 15.6 138.272 15.6C139.415 15.6 140.498 15.7993 141.521 16.1978C142.543 16.5963 143.435 17.1941 144.197 17.9911C144.977 18.7708 145.592 19.7497 146.043 20.9279C146.493 22.0888 146.718 23.4403 146.718 24.9823ZM144.847 24.9823C144.847 23.7695 144.691 22.6866 144.379 21.7336C144.068 20.7633 143.626 19.9403 143.054 19.2646C142.482 18.5889 141.789 18.0777 140.975 17.7312C140.178 17.3673 139.277 17.1854 138.272 17.1854C137.267 17.1854 136.357 17.3673 135.543 17.7312C134.746 18.0777 134.061 18.5889 133.49 19.2646C132.918 19.9403 132.476 20.7633 132.164 21.7336C131.852 22.6866 131.696 23.7695 131.696 24.9823C131.696 26.1952 131.852 27.2868 132.164 28.257C132.476 29.21 132.918 30.0243 133.49 30.7001C134.061 31.3758 134.746 31.8956 135.543 32.2595C136.357 32.6233 137.267 32.8052 138.272 32.8052C139.277 32.8052 140.178 32.6233 140.975 32.2595C141.789 31.8956 142.482 31.3758 143.054 30.7001C143.626 30.0243 144.068 29.21 144.379 28.257C144.691 27.2868 144.847 26.1952 144.847 24.9823Z" fill="#FE6C0A"/>
<path d="M164.974 24.9823C164.974 26.5244 164.731 27.8672 164.246 29.0107C163.761 30.1543 163.077 31.1073 162.193 31.8696C161.327 32.632 160.287 33.2038 159.074 33.5849C157.862 33.9661 156.527 34.1567 155.072 34.1567C154.344 34.1567 153.582 34.1134 152.785 34.0268C151.988 33.9575 151.286 33.8448 150.68 33.6889V16.3277C151.286 16.1545 151.988 16.0332 152.785 15.9639C153.582 15.8773 154.344 15.8339 155.072 15.8339C156.527 15.8339 157.862 16.0245 159.074 16.4057C160.287 16.7869 161.327 17.3587 162.193 18.121C163.077 18.8834 163.761 19.8364 164.246 20.9799C164.731 22.1235 164.974 23.4576 164.974 24.9823ZM152.447 32.4414C152.551 32.4587 152.811 32.4934 153.227 32.5453C153.66 32.5973 154.344 32.6233 155.28 32.6233C156.579 32.6233 157.714 32.4501 158.685 32.1035C159.655 31.7397 160.469 31.2285 161.128 30.5701C161.786 29.9117 162.28 29.1147 162.609 28.1791C162.938 27.2261 163.103 26.1605 163.103 24.9823C163.103 23.8041 162.938 22.7472 162.609 21.8116C162.28 20.876 161.786 20.0789 161.128 19.4205C160.469 18.7621 159.655 18.2597 158.685 17.9131C157.714 17.5493 156.579 17.3673 155.28 17.3673C154.344 17.3673 153.66 17.3933 153.227 17.4453C152.811 17.4973 152.551 17.5319 152.447 17.5493V32.4414Z" fill="#FE6C0A"/>
<path d="M168.928 34.0008V15.9899H179.324V17.5233H170.696V23.7868H178.389V25.2942H170.696V32.4674H180V34.0008H168.928Z" fill="#FE6C0A"/>
<defs>
<linearGradient id="paint0_linear" x1="37.018" y1="8.22757" x2="9.29557" y2="37.466" gradientUnits="userSpaceOnUse">
<stop stop-color="#FE6C0A"/>
<stop offset="0.3125" stop-color="#FE6C0A"/>
<stop offset="0.59375" stop-color="#F63004"/>
<stop offset="1" stop-color="#F63004"/>
</linearGradient>
<linearGradient id="paint1_linear" x1="14.4417" y1="6.92843" x2="31.116" y2="38.7201" gradientUnits="userSpaceOnUse">
<stop stop-color="#FE6C0A"/>
<stop offset="1" stop-color="#F63004"/>
</linearGradient>
</defs>
</svg>
