<svg width="19" height="19" viewBox="0 0 19 19" fill="none" xmlns="http://www.w3.org/2000/svg">
<path d="M9.49881 0.197754C4.25363 0.197754 0 4.468 0 9.73575C0 13.949 2.72175 17.5234 6.498 18.7857C6.973 18.8736 7.14638 18.5791 7.14638 18.3261C7.14638 18.0993 7.13806 17.4996 7.13331 16.704C4.49113 17.2799 3.933 15.4251 3.933 15.4251C3.50194 14.3231 2.8785 14.0298 2.8785 14.0298C2.01519 13.4384 2.94262 13.4503 2.94262 13.4503C3.89619 13.5179 4.39731 14.4335 4.39731 14.4335C5.24519 15.8906 6.6215 15.4702 7.163 15.2256C7.2485 14.6093 7.49431 14.1889 7.76625 13.9502C5.65725 13.7091 3.439 12.8909 3.439 9.237C3.439 8.19557 3.8095 7.34413 4.4175 6.67675C4.31894 6.43569 3.99356 5.4655 4.51013 4.15332C4.51013 4.15332 5.30813 3.89682 7.12263 5.13063C7.88025 4.91925 8.6925 4.81357 9.50119 4.81C10.3075 4.81475 11.1209 4.91925 11.8797 5.13182C13.6931 3.898 14.4899 4.1545 14.4899 4.1545C15.0076 5.46788 14.6822 6.43688 14.5849 6.67794C15.1941 7.34532 15.561 8.19675 15.561 9.23819C15.561 12.9016 13.3404 13.7079 11.2242 13.9443C11.5651 14.2388 11.8691 14.8206 11.8691 15.7101C11.8691 16.9854 11.8572 18.0138 11.8572 18.3261C11.8572 18.5814 12.0282 18.8783 12.5103 18.7845C16.2806 17.521 19 13.9478 19 9.73575C19 4.468 14.7464 0.197754 9.49881 0.197754Z" fill="black"/>
</svg>
