<svg width="36" height="32" viewBox="0 0 36 32" fill="none" xmlns="http://www.w3.org/2000/svg">
<path d="M18 31.75C5.8365 31.75 0 16 0 16C0 16 5.8365 0.25 18 0.25C30.1635 0.25 36 16 36 16C36 16 30.1635 31.75 18 31.75ZM18 4.75C11.7855 4.75 6.75 9.7855 6.75 16C6.75 22.2145 11.7855 27.25 18 27.25C24.2145 27.25 29.25 22.2145 29.25 16C29.25 9.7855 24.2145 4.75 18 4.75ZM18 22.75C16.2098 22.75 14.4929 22.0388 13.227 20.773C11.9612 19.5071 11.25 17.7902 11.25 16C11.25 15.2057 11.412 14.4565 11.664 13.75H15.75V9.664C16.4565 9.412 17.2057 9.25 18 9.25C21.7283 9.25 24.75 12.2717 24.75 16C24.75 19.7283 21.7283 22.75 18 22.75Z" fill="#29B548"/>
</svg>
