<svg width="22" height="22" viewBox="0 0 22 22" fill="none" xmlns="http://www.w3.org/2000/svg">
<g clip-path="url(#clip0)">
<path d="M22 9.33404C22 8.14733 21.0345 7.18187 19.8478 7.18187L14.6575 7.18187L15.4131 5.12048C15.4155 5.11382 15.4178 5.10721 15.4201 5.1005C15.7842 4.00815 15.6926 2.862 15.155 1.78568C14.7493 0.974299 13.9339 0.470276 13.0271 0.470276L12.7749 0.470276C12.1642 0.470276 11.6477 0.947358 11.5989 1.55627C11.5135 2.62108 11.0568 3.62964 10.3129 4.39655L6.15618 8.61668H5.73912V7.89927C5.73912 7.5031 5.41793 7.18187 5.02172 7.18187H0.717406C0.321191 7.18187 0 7.5031 0 7.89927L0 20.8123C0 21.2085 0.321191 21.5297 0.717406 21.5297H5.02176C5.41793 21.5297 5.73916 21.2085 5.73916 20.8123V20.0949H17.6957C18.8824 20.0949 19.8479 19.1295 19.8479 17.9427C19.8479 17.5593 19.7472 17.199 19.5706 16.8869C20.1684 16.5041 20.5653 15.8341 20.5653 15.0732C20.5653 14.6897 20.4646 14.3294 20.288 14.0173C20.8858 13.6345 21.2827 12.9646 21.2827 12.2036C21.2827 11.8201 21.182 11.4598 21.0054 11.1477C21.6031 10.765 22 10.095 22 9.33404ZM4.30435 9.33404L4.30435 19.3775V20.0949H1.43477L1.43477 8.61668H4.30435V9.33404ZM19.8478 10.0514H19.1304H17.6957C17.2995 10.0514 16.9782 10.3726 16.9782 10.7689C16.9782 11.1651 17.2994 11.4863 17.6957 11.4863H19.1304C19.526 11.4863 19.8478 11.8081 19.8478 12.2037C19.8478 12.5992 19.526 12.9211 19.1304 12.9211H18.413H16.9782C16.5821 12.9211 16.2608 13.2423 16.2608 13.6385C16.2608 14.0347 16.582 14.3559 16.9782 14.3559H18.413C18.8086 14.3559 19.1304 14.6777 19.1304 15.0733C19.1304 15.4689 18.8086 15.7907 18.413 15.7907H17.6956C17.658 15.7907 17.6214 15.7945 17.5853 15.8H16.2132C15.817 15.8 15.4958 16.1212 15.4958 16.5174C15.4958 16.9136 15.817 17.2348 16.2132 17.2348H17.648C17.6801 17.2348 17.7115 17.232 17.7426 17.2279C18.1163 17.2523 18.413 17.5632 18.413 17.9429C18.413 18.3384 18.0912 18.6603 17.6956 18.6603H5.73912L5.73912 10.0514H6.45653C6.64868 10.0514 6.83276 9.97432 6.96764 9.83742L11.337 5.40137C11.3382 5.40017 11.3394 5.39892 11.3405 5.39772C12.2626 4.44819 12.8486 3.21559 13.0057 1.90496H13.0271C13.3869 1.90496 13.7106 2.10511 13.8715 2.42703C14.239 3.1627 14.3031 3.90619 14.062 4.63717L12.9568 7.65233C12.8761 7.87237 12.9081 8.11794 13.0423 8.31005C13.1765 8.50217 13.396 8.61664 13.6304 8.61664H19.8478C20.2434 8.61664 20.5652 8.93847 20.5652 9.33404C20.5652 9.72961 20.2434 10.0514 19.8478 10.0514Z" fill="#4AC002"/>
</g>
<defs>
<clipPath id="clip0">
<rect width="22" height="22" fill="white"/>
</clipPath>
</defs>
</svg>
