<svg width="24" height="16" viewBox="0 0 24 16" fill="none" xmlns="http://www.w3.org/2000/svg">
<path d="M23.0905 1.13171L16.2582 7.92004L23.0905 14.7084C23.214 14.4502 23.2889 14.1648 23.2889 13.8601V1.98C23.2889 1.67521 23.214 1.38986 23.0905 1.13171Z" fill="#FE6C0A"/>
<path d="M21.309 0H2.74086C2.43607 0 2.15073 0.0749327 1.89258 0.198442L10.625 8.88688C11.3971 9.659 12.6527 9.659 13.4248 8.88688L22.1573 0.198442C21.8991 0.0749327 21.6138 0 21.309 0Z" fill="#FE6C0A"/>
<path d="M0.959184 1.13171C0.835675 1.38986 0.760742 1.67521 0.760742 1.98V13.8601C0.760742 14.1649 0.835675 14.4503 0.959184 14.7084L7.79151 7.92004L0.959184 1.13171Z" fill="#FE6C0A"/>
<path d="M15.3249 8.85327L14.3581 9.82009C13.0716 11.1066 10.9782 11.1066 9.69168 9.82009L8.7249 8.85327L1.89258 15.6416C2.15073 15.7651 2.43607 15.84 2.74086 15.84H21.309C21.6138 15.84 21.8991 15.7651 22.1573 15.6416L15.3249 8.85327Z" fill="#FE6C0A"/>
</svg>
