<svg width="180" height="51" viewBox="0 0 180 51" fill="none" xmlns="http://www.w3.org/2000/svg">
<path d="M25.831 8.59193C28.2019 7.36924 31.0073 9.17161 30.8807 11.8362L29.6729 37.266C29.5463 39.9306 26.5827 41.459 24.3384 40.0171L2.91943 26.2562C0.67511 24.8143 0.8333 21.4836 3.20418 20.2609L25.831 8.59193Z" fill="url(#paint0_linear_722_265)"/>
<path d="M27.2266 20.2599L12.7953 5.51999L16.0797 12.5468L8.14079 13.0503L17.703 19.633L11.1484 26.2408L22.7634 29.9876L20.7964 34.9819L33.7309 45.4151L25.8278 34.246L28.99 27.8597L21.3871 24.6825L27.2266 20.2599Z" fill="white"/>
<path d="M27.2264 20.2599L21.3869 24.6825L28.9898 27.8597L25.8277 34.246L32.4694 43.5303L23.7935 34.223L26.861 28.596L18.1664 25.0751L23.6888 20.1316L15.6709 9.47004L12.7951 5.51999L27.2264 20.2599Z" fill="url(#paint1_linear_722_265)"/>
<path d="M53.5387 34.0008C53.3481 33.377 53.1315 32.7359 52.8889 32.0775C52.6637 31.4191 52.4384 30.7607 52.2132 30.1023H45.196C44.9707 30.7607 44.7368 31.4191 44.4942 32.0775C44.269 32.7359 44.0611 33.377 43.8705 34.0008H39.6602C40.3359 32.0602 40.977 30.2669 41.5834 28.6209C42.1898 26.9749 42.7789 25.4241 43.3507 23.9687C43.9398 22.5133 44.5116 21.1358 45.066 19.8364C45.6378 18.5195 46.2269 17.2374 46.8333 15.9899H50.7058C51.2949 17.2374 51.8753 18.5195 52.4471 19.8364C53.0189 21.1358 53.5907 22.5133 54.1624 23.9687C54.7515 25.4241 55.3493 26.9749 55.9557 28.6209C56.5622 30.2669 57.2032 32.0602 57.879 34.0008H53.5387ZM48.6786 20.0703C48.592 20.3302 48.462 20.6853 48.2888 21.1358C48.1155 21.5863 47.9162 22.1061 47.691 22.6952C47.4657 23.2843 47.2145 23.9341 46.9373 24.6445C46.6774 25.3548 46.4088 26.0999 46.1316 26.8796H51.2516C50.9744 26.0999 50.7058 25.3548 50.4459 24.6445C50.186 23.9341 49.9348 23.2843 49.6922 22.6952C49.467 22.1061 49.2677 21.5863 49.0944 21.1358C48.9212 20.6853 48.7826 20.3302 48.6786 20.0703Z" fill="white"/>
<path d="M72.2436 30.5181V34.0008H60.2103V15.9899H64.2647V30.5181H72.2436Z" fill="white"/>
<path d="M74.8549 34.0008V15.9899H87.0181V19.3945H78.9093V22.9291H86.1085V26.2558H78.9093V30.5961H87.6159V34.0008H74.8549Z" fill="white"/>
<path d="M101.468 34.0008C100.965 32.9958 100.411 31.9822 99.8045 30.96C99.2154 29.9204 98.531 28.8635 97.7513 27.7892C97.5087 28.1011 97.1968 28.5343 96.8157 29.0887C96.4518 29.6431 96.0793 30.2322 95.6981 30.856C95.3342 31.4798 94.9877 32.0775 94.6585 32.6493C94.3293 33.2211 94.0867 33.6716 93.9308 34.0008H89.3046C90.067 32.5973 90.9506 31.1246 91.9556 29.5825C92.9778 28.0404 94.1127 26.4031 95.3602 24.6704L89.5645 15.9899H94.4766L97.9852 21.6037L101.416 15.9899H106.042L100.324 24.7224C101.78 26.611 103.001 28.361 103.989 29.9724C104.976 31.5664 105.756 32.9092 106.328 34.0008H101.468Z" fill="white"/>
<path d="M122.429 34.3907C121.268 34.3907 120.185 34.1828 119.18 33.7669C118.192 33.3511 117.326 32.7447 116.581 31.9476C115.853 31.1506 115.273 30.1717 114.84 29.0108C114.424 27.8326 114.216 26.4898 114.216 24.9824C114.216 23.475 114.441 22.1408 114.892 20.98C115.359 19.8018 115.974 18.8142 116.737 18.0171C117.499 17.2201 118.383 16.6224 119.388 16.2239C120.393 15.808 121.441 15.6001 122.533 15.6001C123.208 15.6001 123.823 15.6434 124.378 15.73C124.932 15.8167 125.417 15.9293 125.833 16.0679C126.249 16.1892 126.604 16.3191 126.899 16.4578C127.193 16.579 127.419 16.6917 127.575 16.7956L127.003 18.329C126.57 18.0691 126.015 17.8179 125.339 17.5753C124.681 17.3154 123.858 17.1855 122.87 17.1855C121.744 17.1855 120.757 17.3761 119.908 17.7572C119.076 18.1384 118.374 18.6756 117.802 19.3686C117.231 20.0617 116.797 20.8847 116.503 21.8376C116.226 22.7906 116.087 23.8475 116.087 25.0084C116.087 26.2039 116.226 27.2868 116.503 28.2571C116.797 29.2101 117.222 30.0244 117.776 30.7001C118.331 31.3759 119.007 31.8957 119.804 32.2595C120.618 32.6234 121.545 32.8053 122.585 32.8053C123.728 32.8053 124.681 32.7013 125.443 32.4934C126.223 32.2682 126.812 32.0429 127.211 31.8177L127.704 33.3251C127.583 33.4117 127.375 33.5157 127.081 33.637C126.786 33.7409 126.414 33.8536 125.963 33.9748C125.513 34.0961 124.993 34.1914 124.404 34.2607C123.815 34.3474 123.156 34.3907 122.429 34.3907Z" fill="#FE6C0A"/>
<path d="M146.718 24.9824C146.718 26.5245 146.493 27.8846 146.042 29.0628C145.592 30.241 144.977 31.2286 144.197 32.0256C143.435 32.8053 142.543 33.3944 141.52 33.7929C140.498 34.1914 139.415 34.3907 138.272 34.3907C137.128 34.3907 136.045 34.1914 135.023 33.7929C134.001 33.3944 133.1 32.8053 132.32 32.0256C131.558 31.2286 130.951 30.241 130.501 29.0628C130.05 27.8846 129.825 26.5245 129.825 24.9824C129.825 23.4403 130.05 22.0889 130.501 20.928C130.951 19.7498 131.558 18.7708 132.32 17.9912C133.1 17.1941 134.001 16.5964 135.023 16.1979C136.045 15.7994 137.128 15.6001 138.272 15.6001C139.415 15.6001 140.498 15.7994 141.52 16.1979C142.543 16.5964 143.435 17.1941 144.197 17.9912C144.977 18.7708 145.592 19.7498 146.042 20.928C146.493 22.0889 146.718 23.4403 146.718 24.9824ZM144.847 24.9824C144.847 23.7695 144.691 22.6866 144.379 21.7337C144.067 20.7634 143.625 19.9404 143.054 19.2647C142.482 18.5889 141.789 18.0778 140.974 17.7313C140.177 17.3674 139.277 17.1855 138.272 17.1855C137.267 17.1855 136.357 17.3674 135.543 17.7313C134.746 18.0778 134.061 18.5889 133.489 19.2647C132.918 19.9404 132.476 20.7634 132.164 21.7337C131.852 22.6866 131.696 23.7695 131.696 24.9824C131.696 26.1953 131.852 27.2868 132.164 28.2571C132.476 29.2101 132.918 30.0244 133.489 30.7001C134.061 31.3759 134.746 31.8957 135.543 32.2595C136.357 32.6234 137.267 32.8053 138.272 32.8053C139.277 32.8053 140.177 32.6234 140.974 32.2595C141.789 31.8957 142.482 31.3759 143.054 30.7001C143.625 30.0244 144.067 29.2101 144.379 28.2571C144.691 27.2868 144.847 26.1953 144.847 24.9824Z" fill="#FE6C0A"/>
<path d="M164.974 24.9824C164.974 26.5245 164.731 27.8673 164.246 29.0108C163.761 30.1544 163.077 31.1073 162.193 31.8697C161.327 32.632 160.287 33.2038 159.074 33.585C157.861 33.9662 156.527 34.1568 155.072 34.1568C154.344 34.1568 153.582 34.1135 152.785 34.0268C151.988 33.9575 151.286 33.8449 150.679 33.689V16.3278C151.286 16.1545 151.988 16.0333 152.785 15.964C153.582 15.8773 154.344 15.834 155.072 15.834C156.527 15.834 157.861 16.0246 159.074 16.4058C160.287 16.787 161.327 17.3587 162.193 18.1211C163.077 18.8835 163.761 19.8364 164.246 20.98C164.731 22.1235 164.974 23.4577 164.974 24.9824ZM152.447 32.4415C152.551 32.4588 152.811 32.4934 153.226 32.5454C153.66 32.5974 154.344 32.6234 155.28 32.6234C156.579 32.6234 157.714 32.4501 158.684 32.1036C159.655 31.7397 160.469 31.2286 161.127 30.5702C161.786 29.9118 162.28 29.1148 162.609 28.1791C162.938 27.2262 163.103 26.1606 163.103 24.9824C163.103 23.8042 162.938 22.7473 162.609 21.8116C162.28 20.876 161.786 20.079 161.127 19.4206C160.469 18.7622 159.655 18.2597 158.684 17.9132C157.714 17.5493 156.579 17.3674 155.28 17.3674C154.344 17.3674 153.66 17.3934 153.226 17.4454C152.811 17.4973 152.551 17.532 152.447 17.5493V32.4415Z" fill="#FE6C0A"/>
<path d="M168.928 34.0008V15.9899H179.324V17.5233H170.695V23.7869H178.388V25.2943H170.695V32.4674H180V34.0008H168.928Z" fill="#FE6C0A"/>
<defs>
<linearGradient id="paint0_linear_722_265" x1="37.0175" y1="8.22763" x2="9.29514" y2="37.4661" gradientUnits="userSpaceOnUse">
<stop stop-color="#FE6C0A"/>
<stop offset="0.3125" stop-color="#FE6C0A"/>
<stop offset="0.59375" stop-color="#F63004"/>
<stop offset="1" stop-color="#F63004"/>
</linearGradient>
<linearGradient id="paint1_linear_722_265" x1="14.4414" y1="6.92843" x2="31.1157" y2="38.7201" gradientUnits="userSpaceOnUse">
<stop stop-color="#FE6C0A"/>
<stop offset="1" stop-color="#F63004"/>
</linearGradient>
</defs>
</svg>
