<svg width="19" height="18" viewBox="0 0 19 18" fill="none" xmlns="http://www.w3.org/2000/svg">
<path d="M18.6268 9.90445C18.4898 9.79403 18.3237 9.72335 18.1475 9.70044C17.9713 9.67754 17.792 9.70333 17.63 9.77489C16.6262 10.2227 15.5348 10.4532 14.4309 10.4504C12.3888 10.448 10.4305 9.6587 8.98298 8.25454C7.53545 6.85038 6.7161 4.94528 6.70358 2.95463C6.70791 2.33075 6.78756 1.70954 6.9409 1.10382C6.97344 0.942368 6.96124 0.775382 6.90555 0.620063C6.84985 0.464743 6.75269 0.326706 6.62406 0.220173C6.49544 0.11364 6.34 0.0424631 6.17377 0.0139761C6.00753 -0.014511 5.83652 0.00072156 5.67833 0.0581045C4.19013 0.710433 2.89647 1.72084 1.91886 2.99441C0.941259 4.26798 0.311808 5.7629 0.0896424 7.33874C-0.132524 8.91458 0.059888 10.5196 0.648801 12.0031C1.23771 13.4865 2.2038 14.7997 3.4563 15.8192C4.7088 16.8387 6.20659 17.5311 7.80899 17.8313C9.41138 18.1316 11.0658 18.0298 12.6167 17.5356C14.1677 17.0414 15.5643 16.1709 16.6754 15.006C17.7865 13.8411 18.5756 12.42 18.9686 10.8761C19.0164 10.6994 19.0095 10.5128 18.9487 10.3398C18.8879 10.1669 18.7759 10.0154 18.6268 9.90445ZM9.60844 16.0954C8.01528 16.0845 6.46454 15.5937 5.16855 14.6904C3.87255 13.7871 2.89466 12.5153 2.36876 11.0493C1.84286 9.58325 1.79467 7.99458 2.23079 6.5008C2.6669 5.00702 3.566 3.68117 4.80497 2.70477V2.95463C4.80749 5.44258 5.82245 7.82792 7.62712 9.58716C9.43178 11.3464 11.8787 12.3358 14.4309 12.3383C15.101 12.3407 15.7694 12.2724 16.4244 12.1347C15.7693 13.3428 14.7883 14.3537 13.5871 15.0582C12.386 15.7627 11.0103 16.1341 9.60844 16.1324V16.0954Z" fill="#FE6C0A"/>
</svg>
