<svg width="20" height="16" viewBox="0 0 20 16" fill="none" xmlns="http://www.w3.org/2000/svg">
<path d="M10.43 0.0822097C10.2676 0.0119517 10.0895 -0.0139583 9.91379 0.00712359C9.73811 0.0282055 9.57116 0.0955244 9.43 0.20221L4.65 3.98221H1C0.734784 3.98221 0.48043 4.08757 0.292893 4.2751C0.105357 4.46264 0 4.71699 0 4.98221V10.9822C0 11.2474 0.105357 11.5018 0.292893 11.6893C0.48043 11.8769 0.734784 11.9822 1 11.9822H4.65L9.38 15.7622C9.55594 15.9034 9.77444 15.9809 10 15.9822C10.1494 15.9847 10.297 15.9503 10.43 15.8822C10.6002 15.8012 10.744 15.6737 10.8448 15.5144C10.9457 15.3552 10.9995 15.1707 11 14.9822V0.98221C10.9995 0.793724 10.9457 0.609226 10.8448 0.449988C10.744 0.290751 10.6002 0.163258 10.43 0.0822097ZM9 12.9022L5.62 10.2022C5.44406 10.061 5.22556 9.98352 5 9.98221H2V5.98221H5C5.22556 5.9809 5.44406 5.90337 5.62 5.76221L9 3.06221V12.9022Z" fill="#9F9F9F"/>
<path d="M17.2234 7.49973L19.0489 5.67685L19.0491 5.67674C19.1454 5.58042 19.1995 5.44979 19.1995 5.31358C19.1995 5.17738 19.1454 5.04675 19.0491 4.95043C18.9528 4.85411 18.8221 4.8 18.6859 4.8C18.5497 4.8 18.4191 4.85411 18.3228 4.95043L18.3227 4.95055L16.5 6.7763L14.6773 4.95055L14.6772 4.95043C14.5809 4.85411 14.4503 4.8 14.3141 4.8C14.1779 4.8 14.0472 4.85411 13.9509 4.95043C13.8546 5.04675 13.8005 5.17738 13.8005 5.31358C13.8005 5.44979 13.8546 5.58042 13.9509 5.67674L13.9511 5.67685L15.7766 7.49973L13.9515 9.32215C13.9514 9.32226 13.9513 9.32236 13.9512 9.32246C13.9033 9.37003 13.8653 9.42658 13.8394 9.48887C13.8134 9.5513 13.8 9.61825 13.8 9.68588C13.8 9.75351 13.8134 9.82047 13.8394 9.8829C13.8653 9.94507 13.9032 10.0015 13.9509 10.049C13.9984 10.0968 14.0549 10.1347 14.1171 10.1606C14.1795 10.1866 14.2465 10.2 14.3141 10.2C14.3817 10.2 14.4487 10.1866 14.5111 10.1606C14.5734 10.1346 14.63 10.0966 14.6775 10.0487C14.6776 10.0486 14.6777 10.0485 14.6778 10.0485L16.5 8.22317L18.3222 10.0485C18.3223 10.0485 18.3224 10.0486 18.3225 10.0487C18.37 10.0966 18.4266 10.1346 18.4889 10.1606C18.5513 10.1866 18.6183 10.2 18.6859 10.2C18.7535 10.2 18.8205 10.1866 18.8829 10.1606C18.9451 10.1347 19.0016 10.0968 19.0491 10.049C19.0968 10.0015 19.1347 9.94507 19.1606 9.8829C19.1866 9.82047 19.2 9.75351 19.2 9.68588C19.2 9.61826 19.1866 9.5513 19.1606 9.48887C19.1347 9.42656 19.0966 9.37001 19.0488 9.32244C19.0487 9.32235 19.0486 9.32225 19.0485 9.32215L17.2234 7.49973Z" fill="#9F9F9F" stroke="#9F9F9F" stroke-width="0.4"/>
</svg>
