<svg width="20" height="18" viewBox="0 0 20 18" fill="none" xmlns="http://www.w3.org/2000/svg">
<path d="M0.625001 0.666691C0.850002 0.666691 1.06167 0.788357 1.17334 0.992525L1.19084 1.02419C3.06 4.40002 6.62167 6.50002 10.485 6.50002L11.6667 6.50002L11.6667 2.95836C11.6667 2.70752 11.8175 2.48086 12.0483 2.38252C12.2775 2.28586 12.5475 2.33419 12.7267 2.51003L19.81 9.38503C19.9317 9.50253 20 9.66419 20 9.83336C20 10.0025 19.9317 10.1642 19.81 10.2817L12.7267 17.1567C12.5467 17.3317 12.2775 17.3817 12.0483 17.2842C11.8175 17.1859 11.6667 16.9592 11.6667 16.7084L11.6667 13.165C5.21417 13.0534 8.36054e-07 7.77002 1.40241e-06 1.29169C1.4274e-06 1.00586 0.193334 0.756691 0.470001 0.685858C0.521667 0.672524 0.573335 0.666691 0.625001 0.666691ZM12.2917 7.75002L10.485 7.75002C7.005 7.75002 3.74417 6.22586 1.515 3.65752C2.59333 8.38169 6.82917 11.9167 11.875 11.9167L12.2917 11.9167C12.6367 11.9167 12.9167 12.1967 12.9167 12.5417L12.9167 15.2309L18.4775 9.83336L12.9167 4.43586L12.9167 7.12502C12.9167 7.47002 12.6367 7.75002 12.2917 7.75002Z" fill="#3A3A3A"/>
</svg>
