<svg width="19" height="19" viewBox="0 0 19 19" fill="none" xmlns="http://www.w3.org/2000/svg">
<path d="M2.24033 13.0535C3.55657 14.3713 5.3094 15.1623 7.1686 15.2776C9.02779 15.393 10.865 14.8247 12.3341 13.6798L17.3891 18.7333C17.5684 18.9063 17.8085 19.0021 18.0577 19C18.3069 18.9978 18.5454 18.8979 18.7216 18.7217C18.8978 18.5455 18.9978 18.3072 19 18.058C19.0021 17.8088 18.9063 17.5688 18.7332 17.3896L13.6782 12.3361C14.8743 10.8016 15.4397 8.86871 15.2593 6.93171C15.0789 4.99472 14.1661 3.19948 12.7072 1.91213C11.2483 0.624782 9.35307 -0.0577165 7.4081 0.00382795C5.46313 0.0653724 3.61489 0.866324 2.24033 2.24333C1.53008 2.95301 0.96666 3.79563 0.582257 4.72306C0.197853 5.65049 0 6.64454 0 7.64843C0 8.65232 0.197853 9.64638 0.582257 10.5738C0.96666 11.5012 1.53008 12.3439 2.24033 13.0535ZM3.58439 3.58891C4.52407 2.64952 5.76049 2.06491 7.08298 1.93469C8.40547 1.80446 9.73222 2.13667 10.8372 2.87471C11.9421 3.61276 12.7569 4.71097 13.1428 5.98225C13.5286 7.25354 13.4615 8.61922 12.9531 9.84664C12.4446 11.074 11.5262 12.0872 10.3543 12.7136C9.18235 13.34 7.82944 13.5407 6.52605 13.2817C5.22266 13.0227 4.04944 12.3199 3.20626 11.293C2.36309 10.2662 1.90213 8.97884 1.90193 7.65033C1.89933 6.89542 2.04671 6.1475 2.33552 5.44998C2.62434 4.75246 3.04884 4.11922 3.58439 3.58701V3.58891Z" fill="#FE6C0A"/>
</svg>
