<svg width="21" height="16" viewBox="0 0 21 16" fill="none" xmlns="http://www.w3.org/2000/svg">
<path d="M10.43 0.0822097C10.2676 0.0119517 10.0895 -0.0139583 9.91379 0.00712359C9.73811 0.0282055 9.57116 0.0955244 9.43 0.20221L4.65 3.98221H1C0.734784 3.98221 0.48043 4.08757 0.292893 4.2751C0.105357 4.46264 0 4.71699 0 4.98221V10.9822C0 11.2474 0.105357 11.5018 0.292893 11.6893C0.48043 11.8769 0.734784 11.9822 1 11.9822H4.65L9.38 15.7622C9.55594 15.9034 9.77444 15.9809 10 15.9822C10.1494 15.9847 10.297 15.9503 10.43 15.8822C10.6002 15.8012 10.744 15.6737 10.8448 15.5144C10.9457 15.3552 10.9995 15.1707 11 14.9822V0.98221C10.9995 0.793724 10.9457 0.609226 10.8448 0.449988C10.744 0.290751 10.6002 0.163258 10.43 0.0822097ZM9 12.9022L5.62 10.2022C5.44406 10.061 5.22556 9.98352 5 9.98221H2V5.98221H5C5.22556 5.9809 5.44406 5.90337 5.62 5.76221L9 3.06221V12.9022ZM17.66 2.32221C17.4717 2.13391 17.2163 2.02812 16.95 2.02812C16.6837 2.02812 16.4283 2.13391 16.24 2.32221C16.0517 2.51051 15.9459 2.76591 15.9459 3.03221C15.9459 3.29851 16.0517 3.55391 16.24 3.74221C16.8289 4.33015 17.289 5.03414 17.5911 5.80946C17.8933 6.58478 18.0309 7.41448 17.9951 8.24582C17.9594 9.07717 17.7511 9.892 17.3835 10.6385C17.016 11.3851 16.4971 12.047 15.86 12.5822C15.7053 12.7145 15.5946 12.8909 15.5428 13.0878C15.491 13.2847 15.5005 13.4927 15.5701 13.684C15.6396 13.8753 15.766 14.0409 15.9321 14.1585C16.0983 14.2761 16.2964 14.3402 16.5 14.3422C16.7337 14.3427 16.9601 14.2613 17.14 14.1122C17.9909 13.3995 18.6843 12.5175 19.1759 11.5223C19.6675 10.5272 19.9466 9.44058 19.9955 8.33169C20.0444 7.22279 19.862 6.11585 19.4599 5.08125C19.0579 4.04666 18.4449 3.10706 17.66 2.32221ZM14.83 5.15221C14.7368 5.05897 14.6261 4.98501 14.5042 4.93455C14.3824 4.88409 14.2519 4.85812 14.12 4.85812C13.9881 4.85812 13.8576 4.88409 13.7358 4.93455C13.6139 4.98501 13.5032 5.05897 13.41 5.15221C13.3168 5.24545 13.2428 5.35614 13.1923 5.47796C13.1419 5.59978 13.1159 5.73035 13.1159 5.86221C13.1159 5.99407 13.1419 6.12464 13.1923 6.24646C13.2428 6.36828 13.3168 6.47897 13.41 6.57221C13.7856 6.94556 13.9978 7.45263 14 7.98221C14.0002 8.27356 13.9368 8.56144 13.8142 8.82572C13.6915 9.09 13.5126 9.32429 13.29 9.51221C13.1887 9.59616 13.105 9.69926 13.0437 9.81561C12.9823 9.93195 12.9445 10.0593 12.9325 10.1902C12.9204 10.3212 12.9343 10.4533 12.9733 10.5789C13.0124 10.7045 13.0758 10.8212 13.16 10.9222C13.2447 11.0227 13.3483 11.1056 13.465 11.166C13.5817 11.2265 13.7092 11.2633 13.8401 11.2745C13.9711 11.2856 14.1029 11.2709 14.2282 11.231C14.3534 11.1911 14.4696 11.127 14.57 11.0422C15.0171 10.6673 15.3768 10.1992 15.6238 9.67055C15.8709 9.14194 15.9992 8.56569 16 7.98221C15.9944 6.92232 15.5744 5.90666 14.83 5.15221Z" fill="#767676"/>
</svg>
